<svg width="949" height="758" fill="none" xmlns="http://www.w3.org/2000/svg"><g clip-path="url(#a)"><path opacity=".05" d="M272.44 130H201.3a7.43 7.43 0 0 0-7.43 7.43v11.14a7.43 7.43 0 0 0 7.43 7.43h71.14a7.43 7.43 0 0 0 7.43-7.43v-11.14a7.43 7.43 0 0 0-7.43-7.43Z" fill="#8257E5"/><path opacity=".1" d="M362.44 156H291.3a7.43 7.43 0 0 0-7.43 7.43v11.14a7.43 7.43 0 0 0 7.43 7.43h71.14a7.43 7.43 0 0 0 7.43-7.43v-11.14a7.43 7.43 0 0 0-7.43-7.43ZM452.44 182H381.3a7.43 7.43 0 0 0-7.43 7.43v11.14a7.43 7.43 0 0 0 7.43 7.43h71.14a7.43 7.43 0 0 0 7.43-7.43v-11.14a7.43 7.43 0 0 0-7.43-7.43Z" fill="#8257E5"/><path opacity=".05" d="M272.44 91H201.3a7.43 7.43 0 0 0-7.43 7.43v11.14a7.43 7.43 0 0 0 7.43 7.43h71.14a7.43 7.43 0 0 0 7.43-7.43V98.43a7.43 7.43 0 0 0-7.43-7.43ZM362.44 117H291.3a7.43 7.43 0 0 0-7.43 7.43v11.14a7.43 7.43 0 0 0 7.43 7.43h71.14a7.43 7.43 0 0 0 7.43-7.43v-11.14a7.43 7.43 0 0 0-7.43-7.43Z" fill="#8257E5"/><path opacity=".1" d="M452.44 143H381.3a7.43 7.43 0 0 0-7.43 7.43v11.14a7.43 7.43 0 0 0 7.43 7.43h71.14a7.43 7.43 0 0 0 7.43-7.43v-11.14a7.43 7.43 0 0 0-7.43-7.43Z" fill="#8257E5"/><path opacity=".05" d="M552.44 130H481.3a7.43 7.43 0 0 0-7.43 7.43v11.14a7.43 7.43 0 0 0 7.43 7.43h71.14a7.43 7.43 0 0 0 7.43-7.43v-11.14a7.43 7.43 0 0 0-7.43-7.43Z" fill="#8257E5"/><path opacity=".1" d="M642.44 156H571.3a7.43 7.43 0 0 0-7.43 7.43v11.14a7.43 7.43 0 0 0 7.43 7.43h71.14a7.43 7.43 0 0 0 7.43-7.43v-11.14a7.43 7.43 0 0 0-7.43-7.43ZM732.44 182H661.3a7.43 7.43 0 0 0-7.43 7.43v11.14a7.43 7.43 0 0 0 7.43 7.43h71.14a7.43 7.43 0 0 0 7.43-7.43v-11.14a7.43 7.43 0 0 0-7.43-7.43Z" fill="#8257E5"/><path opacity=".05" d="M552.44 91H481.3a7.43 7.43 0 0 0-7.43 7.43v11.14a7.43 7.43 0 0 0 7.43 7.43h71.14a7.43 7.43 0 0 0 7.43-7.43V98.43a7.43 7.43 0 0 0-7.43-7.43ZM642.44 117H571.3a7.43 7.43 0 0 0-7.43 7.43v11.14a7.43 7.43 0 0 0 7.43 7.43h71.14a7.43 7.43 0 0 0 7.43-7.43v-11.14a7.43 7.43 0 0 0-7.43-7.43Z" fill="#8257E5"/><path opacity=".1" d="M732.44 143H661.3a7.43 7.43 0 0 0-7.43 7.43v11.14a7.43 7.43 0 0 0 7.43 7.43h71.14a7.43 7.43 0 0 0 7.43-7.43v-11.14a7.43 7.43 0 0 0-7.43-7.43Z" fill="#8257E5"/><path opacity=".05" d="M272.44 39H201.3a7.43 7.43 0 0 0-7.43 7.43v11.14A7.43 7.43 0 0 0 201.3 65h71.14a7.43 7.43 0 0 0 7.43-7.43V46.43a7.43 7.43 0 0 0-7.43-7.43ZM362.44 65H291.3a7.43 7.43 0 0 0-7.43 7.43v11.14A7.43 7.43 0 0 0 291.3 91h71.14a7.43 7.43 0 0 0 7.43-7.43V72.43a7.43 7.43 0 0 0-7.43-7.43ZM452.44 91H381.3a7.43 7.43 0 0 0-7.43 7.43v11.14a7.43 7.43 0 0 0 7.43 7.43h71.14a7.43 7.43 0 0 0 7.43-7.43V98.43a7.43 7.43 0 0 0-7.43-7.43ZM272.44 0H201.3a7.43 7.43 0 0 0-7.43 7.43v11.14A7.43 7.43 0 0 0 201.3 26h71.14a7.43 7.43 0 0 0 7.43-7.43V7.43A7.43 7.43 0 0 0 272.44 0ZM362.44 26H291.3a7.43 7.43 0 0 0-7.43 7.43v11.14A7.43 7.43 0 0 0 291.3 52h71.14a7.43 7.43 0 0 0 7.43-7.43V33.43a7.43 7.43 0 0 0-7.43-7.43ZM452.44 52H381.3a7.43 7.43 0 0 0-7.43 7.43v11.14A7.43 7.43 0 0 0 381.3 78h71.14a7.43 7.43 0 0 0 7.43-7.43V59.43a7.43 7.43 0 0 0-7.43-7.43ZM552.44 39H481.3a7.43 7.43 0 0 0-7.43 7.43v11.14A7.43 7.43 0 0 0 481.3 65h71.14a7.43 7.43 0 0 0 7.43-7.43V46.43a7.43 7.43 0 0 0-7.43-7.43ZM642.44 65H571.3a7.43 7.43 0 0 0-7.43 7.43v11.14A7.43 7.43 0 0 0 571.3 91h71.14a7.43 7.43 0 0 0 7.43-7.43V72.43a7.43 7.43 0 0 0-7.43-7.43ZM732.44 91H661.3a7.43 7.43 0 0 0-7.43 7.43v11.14a7.43 7.43 0 0 0 7.43 7.43h71.14a7.43 7.43 0 0 0 7.43-7.43V98.43a7.43 7.43 0 0 0-7.43-7.43ZM552.44 0H481.3a7.43 7.43 0 0 0-7.43 7.43v11.14A7.43 7.43 0 0 0 481.3 26h71.14a7.43 7.43 0 0 0 7.43-7.43V7.43A7.43 7.43 0 0 0 552.44 0ZM642.44 26H571.3a7.43 7.43 0 0 0-7.43 7.43v11.14A7.43 7.43 0 0 0 571.3 52h71.14a7.43 7.43 0 0 0 7.43-7.43V33.43a7.43 7.43 0 0 0-7.43-7.43ZM732.44 52H661.3a7.43 7.43 0 0 0-7.43 7.43v11.14A7.43 7.43 0 0 0 661.3 78h71.14a7.43 7.43 0 0 0 7.43-7.43V59.43a7.43 7.43 0 0 0-7.43-7.43ZM272.44 593H201.3a7.43 7.43 0 0 0-7.43 7.43v11.14a7.43 7.43 0 0 0 7.43 7.43h71.14a7.43 7.43 0 0 0 7.43-7.43v-11.14a7.43 7.43 0 0 0-7.43-7.43ZM362.44 619H291.3a7.43 7.43 0 0 0-7.43 7.43v11.14a7.43 7.43 0 0 0 7.43 7.43h71.14a7.43 7.43 0 0 0 7.43-7.43v-11.14a7.43 7.43 0 0 0-7.43-7.43ZM452.44 645H381.3a7.43 7.43 0 0 0-7.43 7.43v11.14a7.43 7.43 0 0 0 7.43 7.43h71.14a7.43 7.43 0 0 0 7.43-7.43v-11.14a7.43 7.43 0 0 0-7.43-7.43ZM272.44 554H201.3a7.43 7.43 0 0 0-7.43 7.43v11.14a7.43 7.43 0 0 0 7.43 7.43h71.14a7.43 7.43 0 0 0 7.43-7.43v-11.14a7.43 7.43 0 0 0-7.43-7.43ZM362.44 580H291.3a7.43 7.43 0 0 0-7.43 7.43v11.14a7.43 7.43 0 0 0 7.43 7.43h71.14a7.43 7.43 0 0 0 7.43-7.43v-11.14a7.43 7.43 0 0 0-7.43-7.43ZM452.44 606H381.3a7.43 7.43 0 0 0-7.43 7.43v11.14a7.43 7.43 0 0 0 7.43 7.43h71.14a7.43 7.43 0 0 0 7.43-7.43v-11.14a7.43 7.43 0 0 0-7.43-7.43ZM552.44 593H481.3a7.43 7.43 0 0 0-7.43 7.43v11.14a7.43 7.43 0 0 0 7.43 7.43h71.14a7.43 7.43 0 0 0 7.43-7.43v-11.14a7.43 7.43 0 0 0-7.43-7.43ZM642.44 619H571.3a7.43 7.43 0 0 0-7.43 7.43v11.14a7.43 7.43 0 0 0 7.43 7.43h71.14a7.43 7.43 0 0 0 7.43-7.43v-11.14a7.43 7.43 0 0 0-7.43-7.43ZM732.44 645H661.3a7.43 7.43 0 0 0-7.43 7.43v11.14a7.43 7.43 0 0 0 7.43 7.43h71.14a7.43 7.43 0 0 0 7.43-7.43v-11.14a7.43 7.43 0 0 0-7.43-7.43ZM552.44 554H481.3a7.43 7.43 0 0 0-7.43 7.43v11.14a7.43 7.43 0 0 0 7.43 7.43h71.14a7.43 7.43 0 0 0 7.43-7.43v-11.14a7.43 7.43 0 0 0-7.43-7.43ZM642.44 580H571.3a7.43 7.43 0 0 0-7.43 7.43v11.14a7.43 7.43 0 0 0 7.43 7.43h71.14a7.43 7.43 0 0 0 7.43-7.43v-11.14a7.43 7.43 0 0 0-7.43-7.43ZM732.44 606H661.3a7.43 7.43 0 0 0-7.43 7.43v11.14a7.43 7.43 0 0 0 7.43 7.43h71.14a7.43 7.43 0 0 0 7.43-7.43v-11.14a7.43 7.43 0 0 0-7.43-7.43ZM272.44 502H201.3a7.43 7.43 0 0 0-7.43 7.43v11.14a7.43 7.43 0 0 0 7.43 7.43h71.14a7.43 7.43 0 0 0 7.43-7.43v-11.14a7.43 7.43 0 0 0-7.43-7.43ZM362.44 528H291.3a7.43 7.43 0 0 0-7.43 7.43v11.14a7.43 7.43 0 0 0 7.43 7.43h71.14a7.43 7.43 0 0 0 7.43-7.43v-11.14a7.43 7.43 0 0 0-7.43-7.43ZM452.44 554H381.3a7.43 7.43 0 0 0-7.43 7.43v11.14a7.43 7.43 0 0 0 7.43 7.43h71.14a7.43 7.43 0 0 0 7.43-7.43v-11.14a7.43 7.43 0 0 0-7.43-7.43Z" fill="#8257E5"/><path opacity=".1" d="M272.44 463H201.3a7.43 7.43 0 0 0-7.43 7.43v11.14a7.43 7.43 0 0 0 7.43 7.43h71.14a7.43 7.43 0 0 0 7.43-7.43v-11.14a7.43 7.43 0 0 0-7.43-7.43Z" fill="#8257E5"/><path opacity=".05" d="M362.44 489H291.3a7.43 7.43 0 0 0-7.43 7.43v11.14a7.43 7.43 0 0 0 7.43 7.43h71.14a7.43 7.43 0 0 0 7.43-7.43v-11.14a7.43 7.43 0 0 0-7.43-7.43ZM452.44 515H381.3a7.43 7.43 0 0 0-7.43 7.43v11.14a7.43 7.43 0 0 0 7.43 7.43h71.14a7.43 7.43 0 0 0 7.43-7.43v-11.14a7.43 7.43 0 0 0-7.43-7.43ZM552.44 502H481.3a7.43 7.43 0 0 0-7.43 7.43v11.14a7.43 7.43 0 0 0 7.43 7.43h71.14a7.43 7.43 0 0 0 7.43-7.43v-11.14a7.43 7.43 0 0 0-7.43-7.43ZM642.44 528H571.3a7.43 7.43 0 0 0-7.43 7.43v11.14a7.43 7.43 0 0 0 7.43 7.43h71.14a7.43 7.43 0 0 0 7.43-7.43v-11.14a7.43 7.43 0 0 0-7.43-7.43ZM732.44 554H661.3a7.43 7.43 0 0 0-7.43 7.43v11.14a7.43 7.43 0 0 0 7.43 7.43h71.14a7.43 7.43 0 0 0 7.43-7.43v-11.14a7.43 7.43 0 0 0-7.43-7.43Z" fill="#8257E5"/><path opacity=".1" d="M552.44 463H481.3a7.43 7.43 0 0 0-7.43 7.43v11.14a7.43 7.43 0 0 0 7.43 7.43h71.14a7.43 7.43 0 0 0 7.43-7.43v-11.14a7.43 7.43 0 0 0-7.43-7.43Z" fill="#8257E5"/><path opacity=".05" d="M642.44 489H571.3a7.43 7.43 0 0 0-7.43 7.43v11.14a7.43 7.43 0 0 0 7.43 7.43h71.14a7.43 7.43 0 0 0 7.43-7.43v-11.14a7.43 7.43 0 0 0-7.43-7.43ZM732.44 515H661.3a7.43 7.43 0 0 0-7.43 7.43v11.14a7.43 7.43 0 0 0 7.43 7.43h71.14a7.43 7.43 0 0 0 7.43-7.43v-11.14a7.43 7.43 0 0 0-7.43-7.43ZM482.37 758c242.177 0 438.5-16.118 438.5-36s-196.323-36-438.5-36-438.5 16.118-438.5 36 196.323 36 438.5 36Z" fill="#8257E5"/><path d="M84.65 186.8c41.35 17.92 65.11 55 65.11 55s-43.29 8-84.65-9.91c-41.36-17.91-65.11-55-65.11-55s43.29-8.01 84.65 9.91ZM211.55 118c12.79-21 34.57-31 34.57-31s1 23.94-11.75 44.88-34.58 30.93-34.58 30.93-1.04-23.93 11.76-44.81Z" fill="#04D361"/><path d="M117.53 140.47c9.15 32.66 34.37 54.16 34.37 54.16s10.39-31.47 1.24-64.14-34.38-54.16-34.38-54.16-10.39 31.47-1.23 64.14Z" fill="#04BF58"/><path d="M840.66 139H126.08a7.21 7.21 0 0 0-7.21 7.21v350.58a7.21 7.21 0 0 0 7.21 7.21h714.58a7.21 7.21 0 0 0 7.21-7.21V146.21a7.21 7.21 0 0 0-7.21-7.21Z" fill="#DEDBFB"/><path opacity=".1" d="M118.87 482h729v14.79a7.21 7.21 0 0 1-7.21 7.21H126.08a7.21 7.21 0 0 1-7.21-7.21V482Z" fill="#000"/><path d="M241.37 455h-49a2.5 2.5 0 0 0-2.5 2.5v22a2.5 2.5 0 0 0 2.5 2.5h49a2.5 2.5 0 0 0 2.5-2.5v-22a2.5 2.5 0 0 0-2.5-2.5ZM293.87 478h-33a2 2 0 1 0 0 4h33a2 2 0 1 0 0-4ZM226.02 210.38c26.39 4.87 53.31 0 79.59-3.3l79.87-10c3.23-.41 7.93-2.34 9.83 1.61 1.07 2.21.35 7 .43 9.54.21 7 .19 14 0 21-.36 13.38-1.34 26.73-2.59 40.05-2.43 26.07-5.87 52-7.59 78.17-.88 13.32-1.32 26.68-.93 40 .09 3.18.22 6.36.41 9.53.21 3.55 1.8 8.82-2.07 11.19-2.21 1.36-6.56 1.29-9.09 1.69-4 .63-8 1.13-12.08 1.54-26.89 2.69-54.13 1.57-81.12 1.41l-81.5-.42-19.88-.11c-1.8 0-8.29 1.08-9.4-1.06-.47-.91.78-5.17 1-6.31.307-1.88.64-3.757 1-5.63 2.32-13.15 5.06-26.22 7.82-39.28 5.93-28 12-56.14 14.44-84.74 1.21-14.35.41-28.83 1.89-43.15.69-6.65 1.51-21.49 10.36-22.08 7.5-.5 15.22 0 22.74 0a1.503 1.503 0 0 0 1.5-1.5 1.503 1.503 0 0 0-1.5-1.5c-7.1 0-14.21-.19-21.31-.05-4.72.09-8 1.21-10.25 5.55-5.75 11.14-5.16 26-5.34 38.16-.43 29.11-4.9 57.6-10.72 86.07-2.93 14.33-6.09 28.61-9 42.95-1.37 6.85-2.68 13.72-3.88 20.61-.56 3.28-3.39 10.51-.9 13.52s10.15 1.39 13.58 1.41l23.86.14 45.72.26c29.54.17 59.18 1 88.71.13 14.1-.42 29-1 42.73-4.37 4.09-1 6.06-2.88 6.22-7.24.24-6.76-.86-13.73-1-20.52-1-58.1 12.65-115.39 11.25-173.51-.09-3.95 1.4-13.91-2.92-16.3-1.94-1.08-4.46-.49-6.5-.25-3.9.45-7.79 1-11.69 1.46l-50.65 6.32c-16.19 2-32.37 4.16-48.59 6-17.17 2-34.51 3.19-51.62 0-1.89-.35-2.7 2.54-.8 2.89l-.03.12Z" fill="#8257E5"/><path d="m194.18 245.73 199.82-9.8c1.93-.1 1.94-3.1 0-3l-199.82 9.8c-1.92.09-1.93 3.09 0 3ZM255.74 221a4.992 4.992 0 0 0-1.247 4.503 5.002 5.002 0 0 0 3.017 3.567c2.69 1.23 5.85.2 8.52-.47 4-1 8-1.89 12.11-2.62a165.052 165.052 0 0 1 27.09-2.52c4.14-.05 8.25.14 12.39.32 3 .12 6.23.36 8.77-1.5 2.9-2.12 3.84-6.26 1-8.84-4-3.65-12.62-1.53-17.24-1.15a386.685 386.685 0 0 0-49.86 7.44c-1.88.4-1.09 3.3.8 2.89a394.9 394.9 0 0 1 32.79-5.64 428.92 428.92 0 0 1 16.27-1.69c2.56-.21 5.12-.4 7.68-.55 1-.06 2.06-.17 3.08-.14 3.17.07 3.54-.5 1.64 3.33-1.69 3.39-1.15 3-4.08 2.89-1.24 0-2.48-.14-3.72-.2-2.54-.107-5.08-.163-7.62-.17-5.407 0-10.8.26-16.18.78-4.56.44-9.11 1.06-13.62 1.86-2.82.5-5.62 1.08-8.41 1.72-1.23.29-2.47.59-3.7.9-.59.16-1.19.3-1.78.45-2.187.76-4.05-.24-5.59-3 1.34-1.39-.77-3.52-2.12-2.12l.01-.04ZM291.96 263.68c-14.47-.56-30.1 3.35-39.63 15-7.46 9.11-11.71 24.74-3.81 35 8.49 11 27.11 9.06 38.34 4.37 11.88-5 24.88-15.31 28.45-28.21 4.45-16.11-10-28.29-25.05-28.47-1.93 0-1.93 3 0 3 8.58.1 17 3.78 21 11.77 4.19 8.42.58 17.26-5 24-8.94 10.73-22.92 18.82-37.16 18.59-8.55-.13-18-3.06-20.65-12.08-2.18-7.31-.52-15.3 3.28-21.78 8.22-14 24.95-18.74 40.29-18.14 1.93.07 1.93-2.93 0-3l-.06-.05Z" fill="#8257E5"/><path d="M277.59 285.9a3.9 3.9 0 0 0-5.24 4c.3 3.9 4.6 5 7.83 4.77 2.79-.24 6.05-1.27 5.07-4.76a4.478 4.478 0 0 0-2.44-2.82 5.645 5.645 0 0 0-2.82-.35c-.37 0-3.76 1.24-2.32-.25l-2.36-.31a2.449 2.449 0 0 1 .72 2 1.516 1.516 0 0 0 .759 1.284 1.509 1.509 0 0 0 1.491.006 1.993 1.993 0 0 1 2.68 1.246c.112.355.122.734.03 1.094a1.51 1.51 0 0 0 2.74 1.16c1-1.8 2.21-5.38.71-7.26-1-1.27-2.93-.89-4.13-.15a14.48 14.48 0 0 0-2.06 1.77c-1.21 1.07-2 1.57-1.55-.48.75-3.73 4.31-6.7 7.56-8.19l-2.2-1.69a31.62 31.62 0 0 1-6.05 11.85l2.56 1.06a6.678 6.678 0 0 1 4.08-6.51h-1.47l.78 1.28c-.29 1.89 2.6 2.7 2.89.79.38-2.47-1.18-5.68-4.07-4.47-3.45 1.44-5.24 5.39-5.17 8.91 0 1.2 1.7 2.13 2.57 1.07a35.263 35.263 0 0 0 6.81-13.19 1.518 1.518 0 0 0-1.363-1.874 1.521 1.521 0 0 0-.847.184 16.77 16.77 0 0 0-7.28 6.34c-1.22 2-2.75 5.12-1.51 7.42a3.18 3.18 0 0 0 4.35 1.23 11.681 11.681 0 0 0 2.51-2c.37-.33.78-.9 1.27-1 .44-.3.42-.13-.07.53a5.444 5.444 0 0 1-.87 2.92l2.74 1.15a5 5 0 0 0-7.11-5.73l2.26 1.3a5.449 5.449 0 0 0-1.13-3.53 1.516 1.516 0 0 0-1.101-.718 1.512 1.512 0 0 0-1.249.408c-1.52 1.59-1.81 4.34.1 5.81 1.43 1.09 2.13 0 3.7-.25 5.33-.69 2.22 1.71.34 1.79a7.097 7.097 0 0 1-2.51-.18c-2.087-.707-2.217-1.617-.39-2.73 1.79.73 2.56-2.17.8-2.89l-.04-.04Z" fill="#8257E5"/><path d="M275.18 291.38c1.23 4-3.85 5.32-6.26 6.7a13.933 13.933 0 0 0-4.33 3.79c-2.52 3.38-3.46 7.68-4.29 11.73-.38 1.89 2.51 2.69 2.9.8a33.97 33.97 0 0 1 2.53-8.63c1.8-3.58 4.38-4.78 7.74-6.62 3.36-1.84 5.79-4.69 4.6-8.57-.56-1.84-3.46-1.05-2.89.8Z" fill="#8257E5"/><path d="M280.18 289.37a2.903 2.903 0 0 0-2.5 3c0 1.19.79 1.95 1.33 2.9a22.885 22.885 0 0 1 2.9 6.31c.48 2.15.95 6-.17 8-2.07 3.71-5.81 3-9 3-3 0-5.32 1-5.22-3.18.06-2.35 1.7-4.73 3-6.58l-2.74-.36a52.22 52.22 0 0 1 .91 9.26c0 1.39 2.13 2.16 2.79.75a57.886 57.886 0 0 0 3.81-10.54l-2.95-.4.52 7.6a1.514 1.514 0 0 0 1.113 1.417 1.513 1.513 0 0 0 1.677-.657c.35-.386.607-.848.75-1.35.1-.47-.82-3.64-1.19-2.51l2.94.4.21-7.22-3 .4c.634 2.036.825 4.184.56 6.3-.19 1.67 2.62 2.05 3 .4l1.88-9.7-2.74.35a6.629 6.629 0 0 1 .51 4.32c-.22 1.92 2.78 1.9 3 0a10.535 10.535 0 0 0-.92-5.83 1.506 1.506 0 0 0-2.273-.363 1.508 1.508 0 0 0-.467.723l-1.89 9.7 2.95.4c.3-2.384.071-4.805-.67-7.09a1.497 1.497 0 0 0-1.638-1.068 1.498 1.498 0 0 0-1.302 1.458l-.21 7.22c0 1.75 2.43 2 2.95.4l.16-.49a1.517 1.517 0 0 0-.38-1.46c-3.11-3.38-3.74 2-4.82 3.49l2.8.76-.52-7.6c-.11-1.62-2.51-2.12-2.95-.4a53.721 53.721 0 0 1-3.5 9.83l2.8.76a56.527 56.527 0 0 0-1-10.06c-.26-1.38-2.07-1.32-2.74-.36-2 2.88-5.46 9.17-2.79 12.62 2.33 3 9.66 1.84 12.79 1.65 4.94-.28 6.73-3.41 7.27-8.07a19.768 19.768 0 0 0-.37-6.68c-.27-1.18-3-8.66-3.82-8.51 1.9-.35 1.09-3.25-.8-2.9l-.05-.04Z" fill="#8257E5"/><path d="m274.37 296.11-8.19 10.81 2.59 1.51 6-8.68-2.74-1.16-2.99 11.41a1.51 1.51 0 0 0 2.74 1.16 52.758 52.758 0 0 1 4.57-6.43l-2.5-1.46a16.329 16.329 0 0 1-3.77 6.93l2.51 1.46a13.401 13.401 0 0 1 1.09-4c.77-1.73-1.67-3.26-2.59-1.52a35.135 35.135 0 0 1-2.89 4.54l2.74.36.61-2.85-2.74-.36.44 2.5a1.507 1.507 0 0 0 1.839 1.043c.253-.068.484-.2.671-.383a29.868 29.868 0 0 0 6-9.05h-2.58a13.492 13.492 0 0 1 1.41 4c.36 1.8 2.75 1.13 2.94-.4.43-3.35.65-6.723.66-10.1h-3v6.29c0 1.63 2.67 2.11 2.95.4a11.463 11.463 0 0 1 1.47-4.3h-2.63a6.67 6.67 0 0 1 1 3.4 1.503 1.503 0 0 0 1.5 1.5 1.503 1.503 0 0 0 1.5-1.5l.38-2h-2.89c.29 1.77 1.39 11.74-2.52 10.57-.66-.16-.85-.12-.57.11l.89-1.9 2.09-4.43-2.8-.76c.18 2.06.37 5-.87 6.76-1 1.43-4.08 2-5.65 1.16a10.014 10.014 0 0 1-2.61-2.74l-2.05 2c1.66 1.21 4.35 4.18 6.49 4.35 1.63.13 3-1.22 4.07-2.3a17.444 17.444 0 0 0 3.762-5.913 17.444 17.444 0 0 0 1.128-6.917 1.503 1.503 0 0 0-1.5-1.5 1.503 1.503 0 0 0-1.5 1.5v3.42a1.503 1.503 0 0 0 1.5 1.5 1.503 1.503 0 0 0 1.5-1.5v-8.39a1.503 1.503 0 0 0-1.5-1.5 1.503 1.503 0 0 0-1.5 1.5 35.912 35.912 0 0 1-.52 6l2.95.4a69.041 69.041 0 0 1-.33-7.19 1.502 1.502 0 0 0-2.317-1.238 1.5 1.5 0 0 0-.623.838c-.45 1.91-1 3.79-1.53 5.66l2.74-.36-.21-.8c-.14-1.91-3.14-1.92-3 0 .033.81.245 1.602.62 2.32.58 1.22 2.39.79 2.74-.36.57-1.88 1.08-3.76 1.53-5.66l-2.95-.4a69.041 69.041 0 0 0 .33 7.19c.15 1.54 2.63 2.2 2.94.4.399-2.259.61-4.546.63-6.84h-3v8.39h3v-3.42h-3a14.423 14.423 0 0 1-3.65 10.28c-.39.443-.811.857-1.26 1.24-.71.68-1.36.58-1.93-.31-1.42-.59-2.89-2.11-4.13-3-1.24-.89-2.94.87-2.06 2.05 2.3 3.06 5.73 6.47 10 5 4.49-1.59 5.1-7.67 4.76-11.67-.11-1.33-2.1-2.23-2.79-.75-1 2.11-2 4.21-3 6.33-.35.74-1 1.76-.9 2.64.33 2.25 3.06 1.88 4.74 1.75 6.51-.49 5.48-9.72 4.73-14.36-.25-1.54-2.49-1.3-2.89 0a8.83 8.83 0 0 0-.49 2.84h3a11.899 11.899 0 0 0-1.41-4.91 1.501 1.501 0 0 0-1.295-.733 1.504 1.504 0 0 0-1.295.733 14.575 14.575 0 0 0-1.78 5l3 .4v-6.29a1.503 1.503 0 0 0-1.5-1.5 1.503 1.503 0 0 0-1.5 1.5c-.01 3.377-.23 6.75-.66 10.1l2.95-.4a17.144 17.144 0 0 0-1.71-4.68 1.501 1.501 0 0 0-1.295-.733 1.504 1.504 0 0 0-1.295.733 27.348 27.348 0 0 1-5.53 8.44l2.51.66-.44-2.5c-.23-1.33-2.11-1.37-2.74-.36a6.588 6.588 0 0 0-.91 5.16c.25 1.42 2.05 1.27 2.74.36a35.025 35.025 0 0 0 2.89-4.53l-2.59-1.52a17.046 17.046 0 0 0-1.4 4.71c-.18 1.32 1.39 2.7 2.51 1.46a19.997 19.997 0 0 0 4.54-8.26c.37-1.36-1.51-2.65-2.51-1.46a57.321 57.321 0 0 0-5 7l2.74 1.16 3.05-11.37a1.51 1.51 0 0 0-2.74-1.16l-6 8.69c-1.12 1.61 1.45 3 2.59 1.51l8.16-10.8c1.16-1.54-1.44-3-2.59-1.52h-.08ZM401.95 332.2c12-7.34 21.54-18.29 32.14-27.45 11.5-9.93 23.57-19.18 36-27.94 24.14-17 49.49-32.21 74.82-47.38a1.502 1.502 0 0 0 .494-2.023 1.5 1.5 0 0 0-2.004-.567c-25.33 15.17-50.69 30.35-74.83 47.38-11.39 8-22.51 16.48-33.17 25.48-11.6 9.8-21.93 22-35 29.91-1.65 1-.14 3.6 1.51 2.59h.04Z" fill="#8257E5"/><path d="M583.64 182.85c-13 1.32-27 4.63-35 16-6.91 9.78-6.76 26.84-.27 36.88 7.37 11.41 22.43 11.82 34.13 8.13 11.7-3.69 23.81-10.16 23.7-24.14-.06-7.5-2.77-15.31-5.76-22.11-2.58-5.87-7.15-11-14.07-10.35-1.91.18-1.93 3.18 0 3 9.27-.86 12.25 10.15 14.45 17.1 2 6.49 3.85 14.17.71 20.62-3.14 6.45-10.71 9.74-17.18 12.1-7 2.54-14.69 4.09-22 2-14.48-4.05-18.48-22.4-14.31-35.42 4.8-15 21.8-19.41 35.65-20.81 1.9-.19 1.92-3.19 0-3h-.05ZM603.64 298.85c-13 1.32-27 4.63-35 16-6.91 9.78-6.76 26.84-.27 36.88 7.37 11.41 22.43 11.82 34.13 8.13 11.7-3.69 23.81-10.16 23.7-24.14-.06-7.5-2.77-15.31-5.76-22.11-2.58-5.87-7.15-11-14.07-10.35-1.91.18-1.93 3.18 0 3 9.27-.86 12.25 10.15 14.45 17.1 2 6.49 3.85 14.17.71 20.62-3.14 6.45-10.71 9.74-17.18 12.1-7 2.54-14.69 4.09-22 2-14.48-4.05-18.48-22.4-14.31-35.42 4.8-15 21.8-19.41 35.65-20.81 1.9-.19 1.92-3.19 0-3h-.05Z" fill="#8257E5"/><path d="m564.03 212.06 9.47 10.8a1.506 1.506 0 0 0 1.439.372A1.512 1.512 0 0 0 576 222.19c2-5.26 1.62-10.71 2.09-16.24a53.45 53.45 0 0 1 4.25-16.57 55.93 55.93 0 0 1 22.38-25.65c1.65-1 .14-3.6-1.51-2.59A58.716 58.716 0 0 0 580.58 186a57.45 57.45 0 0 0-5 15.87c-1 6.49-.09 13.29-2.49 19.52l2.51-.67-9.42-10.78c-1.28-1.45-3.39.68-2.12 2.12h-.03ZM406.78 343.89a3220.447 3220.447 0 0 1 154.78-1c1.93 0 1.93-3 0-3a3185.997 3185.997 0 0 0-154.78 1c-1.93.06-1.94 3.06 0 3ZM572.34 314.31a309.915 309.915 0 0 1 50.67 25.46c1.64 1 3.15-1.57 1.51-2.59a313.218 313.218 0 0 0-51.34-25.76c-1.79-.71-2.57 2.19-.79 2.89h-.05Z" fill="#8257E5"/><path d="M604.36 300.72a122.501 122.501 0 0 0-29.41 74.53c-.08 1.93 2.92 1.93 3 0a119.138 119.138 0 0 1 28.53-72.41c1.25-1.46-.86-3.59-2.12-2.12ZM204.41 333l111.77-1.46 12.85-.17c2.31 0 4.62-.08 6.93-.09 3.25 0 5.44 2.7 5.38 6-.15 7-4.55 6.75-10.31 7l-13.89.63-56.56 2.49c-10.13.45-20.27 1-30.4 1.35-9.14.28-26.52-2.7-22.46-16 .56-1.85-2.33-2.64-2.9-.8-2 6.54 1.54 13.18 7.24 16.61 8.09 4.86 18.75 3.21 27.68 2.81l69.44-3.15 16.86-.75c4.32-.2 10.33.68 14.3-1.33 4.66-2.35 5.48-11.68 2.54-15.61-1.51-2-3.63-2.18-6-2.27-6.22-.24-12.55.17-18.78.25l-34.62.46-79.11 1c-1.93 0-1.93 3 0 3l.04.03Z" fill="#8257E5"/><path d="M655.99 700.5c-2.52 1.58-5.4 2.47-8 3.86-2.6 1.39-5.13 3.48-5.87 6.36a4.001 4.001 0 0 0 .13 2.72 5.28 5.28 0 0 0 2.8 2.22 42.5 42.5 0 0 0 33.61.38 44.256 44.256 0 0 1 5.8-2.3 37.684 37.684 0 0 1 7.43-.76 57.009 57.009 0 0 0 7.81-1 6.867 6.867 0 0 0 3.54-1.47 6.57 6.57 0 0 0 1.59-3.82 31.452 31.452 0 0 0-5-22.28 7.524 7.524 0 0 0-2.18-2.31 8.408 8.408 0 0 0-3.47-.93c-5-.61-10.24-1.73-15.29-1.85-3.62-.08-5.44 1.64-8 4.13-5.29 5.29-8.38 12.98-14.9 17.05ZM729.68 699.76c0 4.9.59 10.09 3.56 14a18.482 18.482 0 0 0 4.86 4.25c6.28 4 14.6 5.47 21.22 2.08a6.302 6.302 0 0 0 2.64-2.22c1-1.74.47-3.91-.09-5.83l-9.58-33.2c-6.19.95-15.29 1.62-20.79 4.76-3.99 2.27-1.82 11.78-1.82 16.16Z" fill="#323444"/><path d="M650.37 495.33c-.58 1.83-2.68 2.68-3.83 4.22-1.35 1.81-1.21 4.32-.72 6.52a17.24 17.24 0 0 0 4.39 8.65 10.379 10.379 0 0 0 9 3.06c3.22-.61 6-3.46 6.11-6.73a12.735 12.735 0 0 0-.94-4.33L657.56 487a1.006 1.006 0 0 0-.48-.67.999.999 0 0 0-.75.13c-1.61.76-4.84 1.56-5.78 3.23-.94 1.67.5 3.83-.18 5.64Z" fill="#FBB3B2"/><path d="M647.18 494.34c2.49-.39 4.67-1.85 7-2.81s5.25-1.33 7.21.27c.56.46 1.1 1.09 1.83 1.08a71.627 71.627 0 0 0-4.48-14.24 1.114 1.114 0 0 0-.39-.55 1.126 1.126 0 0 0-.85 0l-6.73 1.76c-2.49.65-2.78.45-2.59 2.9.05 1.09.61 11.59-1 11.59Z" fill="#323444"/><path d="M646.44 351.94c-1 1.54-1 3.46-1 5.27 0 8.85.09 17.75 1.4 26.51.31 2.1.7 4.2.9 6.32.227 2.951.273 5.913.14 8.87l-1 38.5c-.12 4.71-.36 9.77-3.27 13.47a6.44 6.44 0 0 0-1.17 4.27c.76 9.66 2.36 19.24 3.95 28.79a17.783 17.783 0 0 1 16.14.77 177.675 177.675 0 0 0 8.29-49c.23-8.19-.12-16.43 1.14-24.52 2.11-13.62 1.25-27.59-.3-41.29-.49-4.34-1.53-8.81-4.31-12.17a18.45 18.45 0 0 0-10-5.76c-3.7-.97-7.01.03-10.91-.03Z" fill="#5B5583"/><path opacity=".1" d="M646.44 351.94c-1 1.54-1 3.46-1 5.27 0 8.85.09 17.75 1.4 26.51.31 2.1.7 4.2.9 6.32.227 2.951.273 5.913.14 8.87l-1 38.5c-.12 4.71-.36 9.77-3.27 13.47a6.44 6.44 0 0 0-1.17 4.27c.76 9.66 2.36 19.24 3.95 28.79a17.783 17.783 0 0 1 16.14.77 177.675 177.675 0 0 0 8.29-49c.23-8.19-.12-16.43 1.14-24.52 2.11-13.62 1.25-27.59-.3-41.29-.49-4.34-1.53-8.81-4.31-12.17a18.45 18.45 0 0 0-10-5.76c-3.7-.97-7.01.03-10.91-.03Z" fill="#000"/><path d="M658.66 463.59a176.608 176.608 0 0 0 10.52 102.24 27.72 27.72 0 0 1 2.44 7.56c.55 4.9-1.71 9.61-3 14.35-3 10.78-1.27 22.26.65 33.29.8 4.6 1.623 9.197 2.47 13.79.83 4.48 1.63 9.35-.45 13.41 1.79 7.46 2.85 14.85 4.64 22.31.19.59.248 1.215.17 1.83a5.392 5.392 0 0 1-1.83 2.45 10.939 10.939 0 0 0-2.79 10.47c4.57-3.28 10.94-2.13 16.16 0 5.22 2.13 10.36 5 16 5-.82-6.62-1.61-13.57.83-19.78 1.42-3.6 3.92-7 3.85-10.85-.07-3.45-2.18-6.53-2.69-9.94a25.133 25.133 0 0 1 .24-6.36c1.34-12.24-.18-24.6-1.7-36.82a21.988 21.988 0 0 0-1.68-7c-.71-1.44-1.77-2.82-1.75-4.43 0-1.87 1.51-3.39 2.07-5.17 1-3.28-.84-7.74 1.93-9.77 7.3-5.36 4.5-18.16 4.34-27.21a442.585 442.585 0 0 0-1-23.4 99.682 99.682 0 0 1 5.52 40.34c-.32 4.48-.91 9.19.84 13.33 1.34 3.18 4 5.8 4.72 9.17.45 2.08.13 4.23.23 6.35.1 2.12.82 4.43 2.65 5.5.14 9.64 1 19.95 1.15 29.59a73.039 73.039 0 0 0 1.2 14.7c.449 1.542.698 3.135.74 4.74a19.807 19.807 0 0 1-1.58 5.83 33.433 33.433 0 0 0 5 30.85c2.36-4.19 7.28-6.41 12.08-6.76 4.8-.35 9.54.86 14.19 2.08a27.793 27.793 0 0 1 3.32-16.9 13.828 13.828 0 0 0 1.75-3.76c.54-2.54-.72-5.07-1.4-7.58-1.11-4-.72-8.31-.46-12.49a197.646 197.646 0 0 0-1.85-41.92 35.55 35.55 0 0 0-1.91-8c-.36-.92-.8-1.8-1.1-2.73a21.49 21.49 0 0 1-.8-5.12l-1.15-16c-.81-11.21 2.87-22.28 5.44-33.22 1.15-4.9 2.4-9.79 3.17-14.77 1.05-6.78 1.22-13.71 2.76-20.4 1.38-6 3.87-11.85 4.39-18 .8-9.53-3.16-18.74-7-27.48-1.6-3.6-7.65-3.24-11.54-3.88-27.59-4.53-56.65-4.56-82.67 5.65a20.57 20.57 0 0 0-7.11 4.91Z" fill="#3C354C"/><path d="m678.55 286.1 3.06 11.9a31.782 31.782 0 0 1 1.37 8.41 6.209 6.209 0 0 1-.67 3 7.159 7.159 0 0 1-1.9 1.94c-2.09 1.59-3.54 5.3-5.93 6.4 1.23 2.14 2.93.75 5.15 1.82 3.91 1.9 7.49 4.63 11.73 5.57 4 .88 8.2.05 12.17-1 5.63-1.53 11.23-3.64 15.76-7.33 4.53-3.69 7.11-6.95 7.09-12.78-5 .59-9.45-4.46-11.66-9a24.46 24.46 0 0 1-1.68-5.39l-2.68-11.79c-2.92.64-5.3 2.73-8.09 3.82-2.79 1.09-6.09 1.19-9.19 1.33a98.924 98.924 0 0 0-16.36 2.12c-.74.15-1.67.62-1.49 1.34" fill="#FBB3B2"/><path opacity=".1" d="m678.55 286.1 3.06 11.9a31.782 31.782 0 0 1 1.37 8.41 6.209 6.209 0 0 1-.67 3 7.159 7.159 0 0 1-1.9 1.94c-2.09 1.59-3.54 5.3-5.93 6.4 1.23 2.14 2.93.75 5.15 1.82 3.91 1.9 7.49 4.63 11.73 5.57 4 .88 8.2.05 12.17-1 5.63-1.53 11.23-3.64 15.76-7.33 4.53-3.69 7.11-6.95 7.09-12.78-5 .59-9.45-4.46-11.66-9a24.46 24.46 0 0 1-1.68-5.39l-2.68-11.79c-2.92.64-5.3 2.73-8.09 3.82-2.79 1.09-6.09 1.19-9.19 1.33a98.924 98.924 0 0 0-16.36 2.12c-.74.15-1.67.62-1.49 1.34" fill="#000"/><path d="M691.69 292.66c14.625 0 26.48-11.856 26.48-26.48 0-14.625-11.855-26.48-26.48-26.48-14.624 0-26.48 11.855-26.48 26.48 0 14.624 11.856 26.48 26.48 26.48Z" fill="#FBB3B2"/><path d="M698.98 309.83a23.998 23.998 0 0 1 6-8c3.73-3.27 8.83-5.92 9.71-10.8l8.08 9.41c.439.436.78.961 1 1.54a3.878 3.878 0 0 1-.76 3.11c-2 3.19-5.15 5.47-8.13 7.78a246.743 246.743 0 0 0-19.59 17.28 2.001 2.001 0 0 1-1.05.64 1.89 1.89 0 0 1-1.09-.31 45.482 45.482 0 0 1-13.97-11.36c-.29-.35-.65-.75-1.12-.72a1.44 1.44 0 0 0-.75.39c-2.69 2.2-5.63 4.83-9.08 4.49 4.47-3.21 7-8.57 7.94-14a26.474 26.474 0 0 1 1.14-5.47 5.71 5.71 0 0 1 3.9-3.7c-2.18 3.33-.69 8.05 2.24 10.74a22.088 22.088 0 0 0 9.92 4.81c3.4.64 4.4-3.21 5.61-5.83ZM664.53 466.31c3.77.93 7.34 2.51 11 3.68a52.567 52.567 0 0 0 20.65 2.17 11.15 11.15 0 0 0 6-1.91c.47-.38.9-.83 1.4-1.18a9.785 9.785 0 0 1 2.69-1.11c9.17-2.87 16.85-9.06 24.3-15.12.24-.2.51-.45.49-.77a.999.999 0 0 0-.3-.57l-3.92-4.5c-10.28 1.75-20.81 1.09-31.24.83a45.415 45.415 0 0 0-6.42.17c-2.06.24-4.09.76-6.12 1.2-7.71 1.68-15.59 2.32-23.4 3.42a3.603 3.603 0 0 0-1.55.48c-.329.255-.61.566-.83.92l-2.74 3.85a12.1 12.1 0 0 0-2.3 4.41c-.64 3 .7 4 3.25 3.61a23.747 23.747 0 0 1 9.04.42Z" fill="#323444"/><path d="M695.18 325.57a48.709 48.709 0 0 0-10.31-8.05 14.601 14.601 0 0 0-5-2 6.243 6.243 0 0 0-5.12 1.26c-.89.79-1.45 1.89-2.31 2.72a11.491 11.491 0 0 1-3.66 2.07 64.898 64.898 0 0 0-12.86 7.33 29.484 29.484 0 0 0-5.83 5.38c-4.53 5.8-5.21 13.69-5.09 21.05.09 5.12 5 8.92 8.38 12.75a93.938 93.938 0 0 1 8.58 12c1.82 2.88 3.72 6 3.49 9.43-.19 2.81-1.83 5.45-1.57 8.25.09 1 .41 1.92.5 2.89.18 2-.61 4-.81 6-.27 2.83.65 5.64.7 8.49a27.034 27.034 0 0 1-.74 5.79c-1.92 9.14-4.33 18.33-3.84 27.66l-5.54 1a4.678 4.678 0 0 1-1.07 7.47c8.65 2.89 18 1.43 27.17 1.42 7.59 0 15.15 1 22.73.86s15.4-1.51 21.65-5.8c1.7-1.16 3.26-2.52 5.05-3.53a24.919 24.919 0 0 1 7.65-2.5 75.864 75.864 0 0 1 15-1.34c2.46 0 5.14.1 7.1-1.38 2.16-1.64 2.71-4.61 3-7.3.29-2.84.47-5.69.52-8.54a36.777 36.777 0 0 0-.35-6.64 43.483 43.483 0 0 0-1.17-4.76l-3.77-13.28c-1.56-5.48.61-11.49 1.07-17.17.11-1.34.13-2.9-.9-3.76-.37-.31-.88-.52-1-1a1.713 1.713 0 0 1 .24-1.34c2-4 5-7.53 7.74-11.14a227.757 227.757 0 0 0 12.8-19.67 63.287 63.287 0 0 0-16.94-37.88c-2-2.17-4.29-4.25-7.09-5.23a20.993 20.993 0 0 0-5.64-.91c-7.84-.53-16-1-22.83-4.94a4.338 4.338 0 0 0-1.63-.69c-1.51-.17-2.61 1.32-3.59 2.5-2.52 3-6.23 4.72-9.49 6.93-6.08 4.13-10.83 9.81-15.22 15.6Z" fill="#5B5583"/><path d="M778.29 354.28c1.56 4.94 1.41 10.22 1.92 15.37a59.791 59.791 0 0 0 1.63 9.21c.357 1.661 1 3.248 1.9 4.69.9 1.32 2.19 2.39 2.76 3.88a9.361 9.361 0 0 1 .41 3.12l.12 6.9c.257 3.656-.3 7.324-1.63 10.74l-4.31 13.11c-2.33 7.1-4.72 14.31-8.92 20.49a5.908 5.908 0 0 1-2.57 2.41c-.847.224-1.715.358-2.59.4a6.66 6.66 0 0 0-5.49 6.47 15.21 15.21 0 0 0-3.69-3.77l-8.77-7c-3-2.44-6.13-4.92-9.77-6.33a26.487 26.487 0 0 0 18.42-22.26 10.005 10.005 0 0 1 1-4.38c.73-1.18 2.08-2.08 2.18-3.47.12-1.75-1.86-3.07-1.86-4.82 0-1.16.86-2.12 1.24-3.21a8.064 8.064 0 0 0 0-4.11l-1.21-6.72a5.12 5.12 0 0 0-.6-1.92 12.451 12.451 0 0 0-1.5-1.58c-2.08-2.33-1.16-6 0-8.87a84.78 84.78 0 0 1 10.22-17.93 61.33 61.33 0 0 0 4.07-5.82c1.06-1.84 1.3-4.39 2.42-6 1.44 3.78 3.39 7.51 4.62 11.4Z" fill="#5B5583"/><path d="M738.98 434.38a4.818 4.818 0 0 0-1.14 1.2 10.113 10.113 0 0 1-4.53 3.23c1 .72 1.91 1.43 2.85 2.16a124.862 124.862 0 0 1 19 18.17c.63-2.25 4.4-2.09 5.32-4.24a4.147 4.147 0 0 0 .2-1.92 58.576 58.576 0 0 0-1.44-10 11.324 11.324 0 0 0-2-4.68c-1.4-1.69-3.58-2.5-5.66-3.2-3.15-1.1-9.4-2.65-12.6-.72Z" fill="#323444"/><path d="M726.48 442.24c-3 2.22-5.63 5-9 6.52-2.38 1.08-5.09 1.55-7.17 3.16 1.13 2.49 4.07 3.78 6.8 3.68a16.16 16.16 0 0 0 7.61-2.79c1.79-1.1 3.89-2.38 5.84-1.61.3 1.52-1 2.95-1 4.49s1.28 2.66 2.54 3.47c6 3.87 13.72 3.55 20.87 3.1a1.88 1.88 0 0 0 1.15-.34 1.82 1.82 0 0 0 .43-1.32c.09-1.58.13-3.15.14-4.73a6.777 6.777 0 0 0-2.9-6.68 81.65 81.65 0 0 0-12.5-8.85c-4.4-2.55-8.86-1.04-12.81 1.9Z" fill="#FBB3B2"/><path d="M700.99 255.11c-4.44.53-7.67 4-7.22 7.77.45 3.77 4.41 6.37 8.85 5.83 4.44-.54 7.67-4 7.22-7.76-.45-3.76-4.41-6.37-8.85-5.84Zm1.51 12.56c-3.76.45-7.11-1.76-7.5-4.94-.39-3.18 2.36-6.12 6.11-6.57 3.75-.45 7.11 1.76 7.5 4.94.39 3.18-2.36 6.12-6.11 6.57ZM679.35 257.71c-4.44.53-7.67 4-7.22 7.76.45 3.76 4.41 6.37 8.85 5.84 4.44-.53 7.67-4 7.22-7.77-.45-3.77-4.41-6.36-8.85-5.83Zm1.51 12.55c-3.76.45-7.11-1.76-7.49-4.93-.38-3.17 2.35-6.12 6.11-6.58 3.76-.46 7.11 1.76 7.49 4.94.38 3.18-2.36 6.12-6.11 6.57Z" fill="#3C354C"/><path d="m663.28 259.64 9.65 2.06-.95 2.54-9.1-2.67.4-1.93ZM717.07 253.18l-8.9 4.29 1.53 2.24 8.21-4.75-.84-1.78ZM687.31 261.06l6.77-.81-.35 1.68-5.81.39-.61-1.26Z" fill="#3C354C"/><path d="M674.18 258.79c.637-1.37.978-2.859 1-4.37.024-.904.179-1.8.46-2.66a7.44 7.44 0 0 1 2.18-2.79c3.12-2.64 7.59-4 12-4.19a27.745 27.745 0 0 1 13.88 3 10.8 10.8 0 0 1 3.45 2.56c1.4 1.71 1.7 3.92 3.11 5.61a8.175 8.175 0 0 0 7.66 2.4c.49-1.74-.15-3.58.1-5.36a25.926 25.926 0 0 1 1.59-4.44c1.55-4.57-.71-9.87-5.37-12.6-1.63-1-3.56-1.65-4.78-3-1.22-1.35-1.51-2.75-2.35-4.1-2.23-3.57-8-5.24-12.39-3.59-1.38.52-2.6 1.31-4 1.87-2.6 1.07-5.56 1.26-8.42 1.62a25.81 25.81 0 0 0-8.16 2.14c-2.47 1.22-4.54 3.18-5.11 5.52-.27 1.08-.21 2.2-.48 3.27-1.38 5.43-10.29 8.07-10.79 13.61-.18 2 .91 3.92 2.27 5.55.94 1.11 3.19 4.08 4.78 4.51 1.59.43 2.8-1.08 4.32-1.6 2.4-.75 3.85-.91 5.05-2.96Z" fill="#CBCEDA"/><path d="M786.99 611c0 50.24 31.52 90.9 70.47 90.9Z" fill="#04BF58"/><path d="M857.46 701.91c0-50.81 35.18-91.92 78.65-91.92ZM812.53 615.56c0 47.73 20.1 86.35 44.93 86.35Z" fill="#04D361"/><path d="M857.46 701.91c0-64.92 40.66-117.46 90.9-117.46Z" fill="#04BF58"/><path opacity=".1" d="M854.41 719.27c9.676 0 17.52-1.325 17.52-2.96s-7.844-2.96-17.52-2.96c-9.676 0-17.52 1.325-17.52 2.96s7.844 2.96 17.52 2.96Z" fill="#8257E5"/><path d="M842.64 702.55s10-.31 13-2.45 15.37-4.71 16.12-1.27c.75 3.44 15 17.11 3.73 17.2-11.27.09-26.22-1.76-29.22-3.59-3-1.83-3.63-9.89-3.63-9.89Z" fill="#A8A8A8"/><path opacity=".2" d="M875.7 714.83c-11.28.09-26.21-1.76-29.22-3.59-2.29-1.39-3.2-6.4-3.51-8.7h-.33s.63 8.06 3.64 9.89c3.01 1.83 17.94 3.68 29.22 3.59 3.26 0 4.38-1.19 4.32-2.9-.45 1.04-1.64 1.69-4.12 1.71Z" fill="#000"/><path d="M22.49 640.36c0 40 25.07 72.32 56.06 72.32Z" fill="#04BF58"/><path d="M78.55 712.68c0-40.42 28-73.13 62.57-73.13ZM42.8 644c0 38 16 68.7 35.75 68.7Z" fill="#04D361"/><path d="M78.55 712.68c0-51.65 32.35-93.45 72.32-93.45Z" fill="#04BF58"/><path opacity=".1" d="M76.12 726.5c7.699 0 13.94-1.057 13.94-2.36s-6.241-2.36-13.94-2.36-13.94 1.057-13.94 2.36 6.241 2.36 13.94 2.36Z" fill="#8257E5"/><path d="M66.76 713.19s7.95-.25 10.34-2c2.39-1.75 12.24-3.75 12.83-1 .59 2.75 11.95 13.61 3 13.68-8.95.07-20.86-1.4-23.25-2.85-2.39-1.45-2.92-7.83-2.92-7.83Z" fill="#A8A8A8"/><path opacity=".2" d="M93.06 723c-9 .07-20.86-1.4-23.25-2.86-1.82-1.1-2.54-5.09-2.79-6.92h-.26s.5 6.41 2.89 7.87 14.28 2.92 23.25 2.85c2.59 0 3.49-.94 3.44-2.31-.36.8-1.35 1.31-3.28 1.37Z" fill="#000"/></g><defs><clipPath id="a"><path fill="#fff" d="M0 0h948.37v758H0z"/></clipPath></defs></svg>