<svg width="949" height="758" viewBox="0 0 949 758" fill="none" xmlns="http://www.w3.org/2000/svg">
<g clip-path="url(#clip0)">
<path opacity="0.05" d="M272.44 130H201.3C197.197 130 193.87 133.327 193.87 137.43V148.57C193.87 152.673 197.197 156 201.3 156H272.44C276.543 156 279.87 152.673 279.87 148.57V137.43C279.87 133.327 276.543 130 272.44 130Z" fill="#8257E5"/>
<path opacity="0.1" d="M362.44 156H291.3C287.197 156 283.87 159.327 283.87 163.43V174.57C283.87 178.673 287.197 182 291.3 182H362.44C366.543 182 369.87 178.673 369.87 174.57V163.43C369.87 159.327 366.543 156 362.44 156Z" fill="#8257E5"/>
<path opacity="0.1" d="M452.44 182H381.3C377.197 182 373.87 185.327 373.87 189.43V200.57C373.87 204.673 377.197 208 381.3 208H452.44C456.543 208 459.87 204.673 459.87 200.57V189.43C459.87 185.327 456.543 182 452.44 182Z" fill="#8257E5"/>
<path opacity="0.05" d="M272.44 91H201.3C197.197 91 193.87 94.3265 193.87 98.43V109.57C193.87 113.673 197.197 117 201.3 117H272.44C276.543 117 279.87 113.673 279.87 109.57V98.43C279.87 94.3265 276.543 91 272.44 91Z" fill="#8257E5"/>
<path opacity="0.05" d="M362.44 117H291.3C287.197 117 283.87 120.327 283.87 124.43V135.57C283.87 139.673 287.197 143 291.3 143H362.44C366.543 143 369.87 139.673 369.87 135.57V124.43C369.87 120.327 366.543 117 362.44 117Z" fill="#8257E5"/>
<path opacity="0.1" d="M452.44 143H381.3C377.197 143 373.87 146.327 373.87 150.43V161.57C373.87 165.673 377.197 169 381.3 169H452.44C456.543 169 459.87 165.673 459.87 161.57V150.43C459.87 146.327 456.543 143 452.44 143Z" fill="#8257E5"/>
<path opacity="0.05" d="M552.44 130H481.3C477.197 130 473.87 133.327 473.87 137.43V148.57C473.87 152.673 477.197 156 481.3 156H552.44C556.543 156 559.87 152.673 559.87 148.57V137.43C559.87 133.327 556.543 130 552.44 130Z" fill="#8257E5"/>
<path opacity="0.1" d="M642.44 156H571.3C567.197 156 563.87 159.327 563.87 163.43V174.57C563.87 178.673 567.197 182 571.3 182H642.44C646.543 182 649.87 178.673 649.87 174.57V163.43C649.87 159.327 646.543 156 642.44 156Z" fill="#8257E5"/>
<path opacity="0.1" d="M732.44 182H661.3C657.197 182 653.87 185.327 653.87 189.43V200.57C653.87 204.673 657.197 208 661.3 208H732.44C736.543 208 739.87 204.673 739.87 200.57V189.43C739.87 185.327 736.543 182 732.44 182Z" fill="#8257E5"/>
<path opacity="0.05" d="M552.44 91H481.3C477.197 91 473.87 94.3265 473.87 98.43V109.57C473.87 113.673 477.197 117 481.3 117H552.44C556.543 117 559.87 113.673 559.87 109.57V98.43C559.87 94.3265 556.543 91 552.44 91Z" fill="#8257E5"/>
<path opacity="0.05" d="M642.44 117H571.3C567.197 117 563.87 120.327 563.87 124.43V135.57C563.87 139.673 567.197 143 571.3 143H642.44C646.543 143 649.87 139.673 649.87 135.57V124.43C649.87 120.327 646.543 117 642.44 117Z" fill="#8257E5"/>
<path opacity="0.1" d="M732.44 143H661.3C657.197 143 653.87 146.327 653.87 150.43V161.57C653.87 165.673 657.197 169 661.3 169H732.44C736.543 169 739.87 165.673 739.87 161.57V150.43C739.87 146.327 736.543 143 732.44 143Z" fill="#8257E5"/>
<path opacity="0.05" d="M272.44 39H201.3C197.197 39 193.87 42.3265 193.87 46.43V57.57C193.87 61.6735 197.197 65 201.3 65H272.44C276.543 65 279.87 61.6735 279.87 57.57V46.43C279.87 42.3265 276.543 39 272.44 39Z" fill="#8257E5"/>
<path opacity="0.05" d="M362.44 65H291.3C287.197 65 283.87 68.3265 283.87 72.43V83.57C283.87 87.6735 287.197 91 291.3 91H362.44C366.543 91 369.87 87.6735 369.87 83.57V72.43C369.87 68.3265 366.543 65 362.44 65Z" fill="#8257E5"/>
<path opacity="0.05" d="M452.44 91H381.3C377.197 91 373.87 94.3265 373.87 98.43V109.57C373.87 113.673 377.197 117 381.3 117H452.44C456.543 117 459.87 113.673 459.87 109.57V98.43C459.87 94.3265 456.543 91 452.44 91Z" fill="#8257E5"/>
<path opacity="0.05" d="M272.44 0H201.3C197.197 0 193.87 3.32652 193.87 7.43V18.57C193.87 22.6735 197.197 26 201.3 26H272.44C276.543 26 279.87 22.6735 279.87 18.57V7.43C279.87 3.32652 276.543 0 272.44 0Z" fill="#8257E5"/>
<path opacity="0.05" d="M362.44 26H291.3C287.197 26 283.87 29.3265 283.87 33.43V44.57C283.87 48.6735 287.197 52 291.3 52H362.44C366.543 52 369.87 48.6735 369.87 44.57V33.43C369.87 29.3265 366.543 26 362.44 26Z" fill="#8257E5"/>
<path opacity="0.05" d="M452.44 52H381.3C377.197 52 373.87 55.3265 373.87 59.43V70.57C373.87 74.6735 377.197 78 381.3 78H452.44C456.543 78 459.87 74.6735 459.87 70.57V59.43C459.87 55.3265 456.543 52 452.44 52Z" fill="#8257E5"/>
<path opacity="0.05" d="M552.44 39H481.3C477.197 39 473.87 42.3265 473.87 46.43V57.57C473.87 61.6735 477.197 65 481.3 65H552.44C556.543 65 559.87 61.6735 559.87 57.57V46.43C559.87 42.3265 556.543 39 552.44 39Z" fill="#8257E5"/>
<path opacity="0.05" d="M642.44 65H571.3C567.197 65 563.87 68.3265 563.87 72.43V83.57C563.87 87.6735 567.197 91 571.3 91H642.44C646.543 91 649.87 87.6735 649.87 83.57V72.43C649.87 68.3265 646.543 65 642.44 65Z" fill="#8257E5"/>
<path opacity="0.05" d="M732.44 91H661.3C657.197 91 653.87 94.3265 653.87 98.43V109.57C653.87 113.673 657.197 117 661.3 117H732.44C736.543 117 739.87 113.673 739.87 109.57V98.43C739.87 94.3265 736.543 91 732.44 91Z" fill="#8257E5"/>
<path opacity="0.05" d="M552.44 0H481.3C477.197 0 473.87 3.32652 473.87 7.43V18.57C473.87 22.6735 477.197 26 481.3 26H552.44C556.543 26 559.87 22.6735 559.87 18.57V7.43C559.87 3.32652 556.543 0 552.44 0Z" fill="#8257E5"/>
<path opacity="0.05" d="M642.44 26H571.3C567.197 26 563.87 29.3265 563.87 33.43V44.57C563.87 48.6735 567.197 52 571.3 52H642.44C646.543 52 649.87 48.6735 649.87 44.57V33.43C649.87 29.3265 646.543 26 642.44 26Z" fill="#8257E5"/>
<path opacity="0.05" d="M732.44 52H661.3C657.197 52 653.87 55.3265 653.87 59.43V70.57C653.87 74.6735 657.197 78 661.3 78H732.44C736.543 78 739.87 74.6735 739.87 70.57V59.43C739.87 55.3265 736.543 52 732.44 52Z" fill="#8257E5"/>
<path opacity="0.05" d="M272.44 593H201.3C197.197 593 193.87 596.327 193.87 600.43V611.57C193.87 615.673 197.197 619 201.3 619H272.44C276.543 619 279.87 615.673 279.87 611.57V600.43C279.87 596.327 276.543 593 272.44 593Z" fill="#8257E5"/>
<path opacity="0.05" d="M362.44 619H291.3C287.197 619 283.87 622.327 283.87 626.43V637.57C283.87 641.673 287.197 645 291.3 645H362.44C366.543 645 369.87 641.673 369.87 637.57V626.43C369.87 622.327 366.543 619 362.44 619Z" fill="#8257E5"/>
<path opacity="0.05" d="M452.44 645H381.3C377.197 645 373.87 648.327 373.87 652.43V663.57C373.87 667.673 377.197 671 381.3 671H452.44C456.543 671 459.87 667.673 459.87 663.57V652.43C459.87 648.327 456.543 645 452.44 645Z" fill="#8257E5"/>
<path opacity="0.05" d="M272.44 554H201.3C197.197 554 193.87 557.327 193.87 561.43V572.57C193.87 576.673 197.197 580 201.3 580H272.44C276.543 580 279.87 576.673 279.87 572.57V561.43C279.87 557.327 276.543 554 272.44 554Z" fill="#8257E5"/>
<path opacity="0.05" d="M362.44 580H291.3C287.197 580 283.87 583.327 283.87 587.43V598.57C283.87 602.673 287.197 606 291.3 606H362.44C366.543 606 369.87 602.673 369.87 598.57V587.43C369.87 583.327 366.543 580 362.44 580Z" fill="#8257E5"/>
<path opacity="0.05" d="M452.44 606H381.3C377.197 606 373.87 609.327 373.87 613.43V624.57C373.87 628.673 377.197 632 381.3 632H452.44C456.543 632 459.87 628.673 459.87 624.57V613.43C459.87 609.327 456.543 606 452.44 606Z" fill="#8257E5"/>
<path opacity="0.05" d="M552.44 593H481.3C477.197 593 473.87 596.327 473.87 600.43V611.57C473.87 615.673 477.197 619 481.3 619H552.44C556.543 619 559.87 615.673 559.87 611.57V600.43C559.87 596.327 556.543 593 552.44 593Z" fill="#8257E5"/>
<path opacity="0.05" d="M642.44 619H571.3C567.197 619 563.87 622.327 563.87 626.43V637.57C563.87 641.673 567.197 645 571.3 645H642.44C646.543 645 649.87 641.673 649.87 637.57V626.43C649.87 622.327 646.543 619 642.44 619Z" fill="#8257E5"/>
<path opacity="0.05" d="M732.44 645H661.3C657.197 645 653.87 648.327 653.87 652.43V663.57C653.87 667.673 657.197 671 661.3 671H732.44C736.543 671 739.87 667.673 739.87 663.57V652.43C739.87 648.327 736.543 645 732.44 645Z" fill="#8257E5"/>
<path opacity="0.05" d="M552.44 554H481.3C477.197 554 473.87 557.327 473.87 561.43V572.57C473.87 576.673 477.197 580 481.3 580H552.44C556.543 580 559.87 576.673 559.87 572.57V561.43C559.87 557.327 556.543 554 552.44 554Z" fill="#8257E5"/>
<path opacity="0.05" d="M642.44 580H571.3C567.197 580 563.87 583.327 563.87 587.43V598.57C563.87 602.673 567.197 606 571.3 606H642.44C646.543 606 649.87 602.673 649.87 598.57V587.43C649.87 583.327 646.543 580 642.44 580Z" fill="#8257E5"/>
<path opacity="0.05" d="M732.44 606H661.3C657.197 606 653.87 609.327 653.87 613.43V624.57C653.87 628.673 657.197 632 661.3 632H732.44C736.543 632 739.87 628.673 739.87 624.57V613.43C739.87 609.327 736.543 606 732.44 606Z" fill="#8257E5"/>
<path opacity="0.05" d="M272.44 502H201.3C197.197 502 193.87 505.327 193.87 509.43V520.57C193.87 524.673 197.197 528 201.3 528H272.44C276.543 528 279.87 524.673 279.87 520.57V509.43C279.87 505.327 276.543 502 272.44 502Z" fill="#8257E5"/>
<path opacity="0.05" d="M362.44 528H291.3C287.197 528 283.87 531.327 283.87 535.43V546.57C283.87 550.673 287.197 554 291.3 554H362.44C366.543 554 369.87 550.673 369.87 546.57V535.43C369.87 531.327 366.543 528 362.44 528Z" fill="#8257E5"/>
<path opacity="0.05" d="M452.44 554H381.3C377.197 554 373.87 557.327 373.87 561.43V572.57C373.87 576.673 377.197 580 381.3 580H452.44C456.543 580 459.87 576.673 459.87 572.57V561.43C459.87 557.327 456.543 554 452.44 554Z" fill="#8257E5"/>
<path opacity="0.1" d="M272.44 463H201.3C197.197 463 193.87 466.327 193.87 470.43V481.57C193.87 485.673 197.197 489 201.3 489H272.44C276.543 489 279.87 485.673 279.87 481.57V470.43C279.87 466.327 276.543 463 272.44 463Z" fill="#8257E5"/>
<path opacity="0.05" d="M362.44 489H291.3C287.197 489 283.87 492.327 283.87 496.43V507.57C283.87 511.673 287.197 515 291.3 515H362.44C366.543 515 369.87 511.673 369.87 507.57V496.43C369.87 492.327 366.543 489 362.44 489Z" fill="#8257E5"/>
<path opacity="0.05" d="M452.44 515H381.3C377.197 515 373.87 518.327 373.87 522.43V533.57C373.87 537.673 377.197 541 381.3 541H452.44C456.543 541 459.87 537.673 459.87 533.57V522.43C459.87 518.327 456.543 515 452.44 515Z" fill="#8257E5"/>
<path opacity="0.05" d="M552.44 502H481.3C477.197 502 473.87 505.327 473.87 509.43V520.57C473.87 524.673 477.197 528 481.3 528H552.44C556.543 528 559.87 524.673 559.87 520.57V509.43C559.87 505.327 556.543 502 552.44 502Z" fill="#8257E5"/>
<path opacity="0.05" d="M642.44 528H571.3C567.197 528 563.87 531.327 563.87 535.43V546.57C563.87 550.673 567.197 554 571.3 554H642.44C646.543 554 649.87 550.673 649.87 546.57V535.43C649.87 531.327 646.543 528 642.44 528Z" fill="#8257E5"/>
<path opacity="0.05" d="M732.44 554H661.3C657.197 554 653.87 557.327 653.87 561.43V572.57C653.87 576.673 657.197 580 661.3 580H732.44C736.543 580 739.87 576.673 739.87 572.57V561.43C739.87 557.327 736.543 554 732.44 554Z" fill="#8257E5"/>
<path opacity="0.1" d="M552.44 463H481.3C477.197 463 473.87 466.327 473.87 470.43V481.57C473.87 485.673 477.197 489 481.3 489H552.44C556.543 489 559.87 485.673 559.87 481.57V470.43C559.87 466.327 556.543 463 552.44 463Z" fill="#8257E5"/>
<path opacity="0.05" d="M642.44 489H571.3C567.197 489 563.87 492.327 563.87 496.43V507.57C563.87 511.673 567.197 515 571.3 515H642.44C646.543 515 649.87 511.673 649.87 507.57V496.43C649.87 492.327 646.543 489 642.44 489Z" fill="#8257E5"/>
<path opacity="0.05" d="M732.44 515H661.3C657.197 515 653.87 518.327 653.87 522.43V533.57C653.87 537.673 657.197 541 661.3 541H732.44C736.543 541 739.87 537.673 739.87 533.57V522.43C739.87 518.327 736.543 515 732.44 515Z" fill="#8257E5"/>
<path opacity="0.05" d="M482.37 758C724.547 758 920.87 741.882 920.87 722C920.87 702.118 724.547 686 482.37 686C240.193 686 43.87 702.118 43.87 722C43.87 741.882 240.193 758 482.37 758Z" fill="#8257E5"/>
<path d="M84.65 186.8C126 204.72 149.76 241.8 149.76 241.8C149.76 241.8 106.47 249.8 65.11 231.89C23.75 213.98 0 176.89 0 176.89C0 176.89 43.29 168.88 84.65 186.8Z" fill="#04D361"/>
<path d="M211.55 118C224.34 97 246.12 87 246.12 87C246.12 87 247.12 110.94 234.37 131.88C221.62 152.82 199.79 162.81 199.79 162.81C199.79 162.81 198.75 138.88 211.55 118Z" fill="#04D361"/>
<path d="M117.53 140.47C126.68 173.13 151.9 194.63 151.9 194.63C151.9 194.63 162.29 163.16 153.14 130.49C143.99 97.82 118.76 76.33 118.76 76.33C118.76 76.33 108.37 107.8 117.53 140.47Z" fill="#04BF58"/>
<path d="M840.66 139H126.08C122.098 139 118.87 142.228 118.87 146.21V496.79C118.87 500.772 122.098 504 126.08 504H840.66C844.642 504 847.87 500.772 847.87 496.79V146.21C847.87 142.228 844.642 139 840.66 139Z" fill="#DEDBFB"/>
<path opacity="0.1" d="M118.87 482H847.87V496.79C847.87 498.702 847.11 500.536 845.758 501.888C844.406 503.24 842.572 504 840.66 504H126.08C124.168 504 122.334 503.24 120.982 501.888C119.63 500.536 118.87 498.702 118.87 496.79V482Z" fill="black"/>
<path d="M241.37 455H192.37C190.989 455 189.87 456.119 189.87 457.5V479.5C189.87 480.881 190.989 482 192.37 482H241.37C242.751 482 243.87 480.881 243.87 479.5V457.5C243.87 456.119 242.751 455 241.37 455Z" fill="#8257E5"/>
<path d="M293.87 478H260.87C259.765 478 258.87 478.895 258.87 480C258.87 481.105 259.765 482 260.87 482H293.87C294.975 482 295.87 481.105 295.87 480C295.87 478.895 294.975 478 293.87 478Z" fill="#8257E5"/>
<path d="M226.02 210.38C252.41 215.25 279.33 210.38 305.61 207.08L385.48 197.08C388.71 196.67 393.41 194.74 395.31 198.69C396.38 200.9 395.66 205.69 395.74 208.23C395.95 215.23 395.93 222.23 395.74 229.23C395.38 242.61 394.4 255.96 393.15 269.28C390.72 295.35 387.28 321.28 385.56 347.45C384.68 360.77 384.24 374.13 384.63 387.45C384.72 390.63 384.85 393.81 385.04 396.98C385.25 400.53 386.84 405.8 382.97 408.17C380.76 409.53 376.41 409.46 373.88 409.86C369.88 410.49 365.88 410.99 361.8 411.4C334.91 414.09 307.67 412.97 280.68 412.81L199.18 412.39L179.3 412.28C177.5 412.28 171.01 413.36 169.9 411.22C169.43 410.31 170.68 406.05 170.9 404.91C171.207 403.03 171.54 401.153 171.9 399.28C174.22 386.13 176.96 373.06 179.72 360C185.65 332 191.72 303.86 194.16 275.26C195.37 260.91 194.57 246.43 196.05 232.11C196.74 225.46 197.56 210.62 206.41 210.03C213.91 209.53 221.63 210.03 229.15 210.03C229.548 210.03 229.929 209.872 230.211 209.591C230.492 209.309 230.65 208.928 230.65 208.53C230.65 208.132 230.492 207.751 230.211 207.469C229.929 207.188 229.548 207.03 229.15 207.03C222.05 207.03 214.94 206.84 207.84 206.98C203.12 207.07 199.84 208.19 197.59 212.53C191.84 223.67 192.43 238.53 192.25 250.69C191.82 279.8 187.35 308.29 181.53 336.76C178.6 351.09 175.44 365.37 172.53 379.71C171.16 386.56 169.85 393.43 168.65 400.32C168.09 403.6 165.26 410.83 167.75 413.84C170.24 416.85 177.9 415.23 181.33 415.25L205.19 415.39L250.91 415.65C280.45 415.82 310.09 416.65 339.62 415.78C353.72 415.36 368.62 414.78 382.35 411.41C386.44 410.41 388.41 408.53 388.57 404.17C388.81 397.41 387.71 390.44 387.57 383.65C386.57 325.55 400.22 268.26 398.82 210.14C398.73 206.19 400.22 196.23 395.9 193.84C393.96 192.76 391.44 193.35 389.4 193.59C385.5 194.04 381.61 194.59 377.71 195.05L327.06 201.37C310.87 203.37 294.69 205.53 278.47 207.37C261.3 209.37 243.96 210.56 226.85 207.37C224.96 207.02 224.15 209.91 226.05 210.26L226.02 210.38Z" fill="#8257E5"/>
<path d="M194.18 245.73L394 235.93C395.93 235.83 395.94 232.83 394 232.93L194.18 242.73C192.26 242.82 192.25 245.82 194.18 245.73Z" fill="#8257E5"/>
<path d="M255.74 221C255.181 221.592 254.775 222.312 254.558 223.097C254.341 223.881 254.318 224.707 254.493 225.503C254.667 226.298 255.033 227.039 255.559 227.66C256.085 228.282 256.755 228.766 257.51 229.07C260.2 230.3 263.36 229.27 266.03 228.6C270.03 227.6 274.03 226.71 278.14 225.98C287.085 224.396 296.146 223.553 305.23 223.46C309.37 223.41 313.48 223.6 317.62 223.78C320.62 223.9 323.85 224.14 326.39 222.28C329.29 220.16 330.23 216.02 327.39 213.44C323.39 209.79 314.77 211.91 310.15 212.29C293.386 213.683 276.73 216.168 260.29 219.73C258.41 220.13 259.2 223.03 261.09 222.62C271.937 220.28 282.867 218.4 293.88 216.98C299.293 216.313 304.717 215.75 310.15 215.29C312.71 215.08 315.27 214.89 317.83 214.74C318.83 214.68 319.89 214.57 320.91 214.6C324.08 214.67 324.45 214.1 322.55 217.93C320.86 221.32 321.4 220.93 318.47 220.82C317.23 220.82 315.99 220.68 314.75 220.62C312.21 220.513 309.67 220.457 307.13 220.45C301.723 220.45 296.33 220.71 290.95 221.23C286.39 221.67 281.84 222.29 277.33 223.09C274.51 223.59 271.71 224.17 268.92 224.81C267.69 225.1 266.45 225.4 265.22 225.71C264.63 225.87 264.03 226.01 263.44 226.16C261.253 226.92 259.39 225.92 257.85 223.16C259.19 221.77 257.08 219.64 255.73 221.04L255.74 221Z" fill="#8257E5"/>
<path d="M291.96 263.68C277.49 263.12 261.86 267.03 252.33 278.68C244.87 287.79 240.62 303.42 248.52 313.68C257.01 324.68 275.63 322.74 286.86 318.05C298.74 313.05 311.74 302.74 315.31 289.84C319.76 273.73 305.31 261.55 290.26 261.37C288.33 261.37 288.33 264.37 290.26 264.37C298.84 264.47 307.26 268.15 311.26 276.14C315.45 284.56 311.84 293.4 306.26 300.14C297.32 310.87 283.34 318.96 269.1 318.73C260.55 318.6 251.1 315.67 248.45 306.65C246.27 299.34 247.93 291.35 251.73 284.87C259.95 270.87 276.68 266.13 292.02 266.73C293.95 266.8 293.95 263.8 292.02 263.73L291.96 263.68Z" fill="#8257E5"/>
<path d="M277.59 285.9C276.973 285.671 276.308 285.603 275.658 285.7C275.007 285.797 274.391 286.058 273.868 286.457C273.345 286.856 272.932 287.381 272.667 287.983C272.401 288.585 272.292 289.245 272.35 289.9C272.65 293.8 276.95 294.9 280.18 294.67C282.97 294.43 286.23 293.4 285.25 289.91C285.07 289.292 284.758 288.721 284.337 288.234C283.916 287.747 283.395 287.357 282.81 287.09C281.915 286.735 280.944 286.614 279.99 286.74C279.62 286.74 276.23 287.98 277.67 286.49L275.31 286.18C275.572 286.438 275.773 286.752 275.897 287.098C276.022 287.444 276.067 287.814 276.03 288.18C276.035 288.441 276.107 288.697 276.24 288.922C276.373 289.147 276.562 289.334 276.789 289.464C277.016 289.594 277.272 289.663 277.534 289.664C277.795 289.665 278.052 289.598 278.28 289.47C278.623 289.326 278.999 289.281 279.367 289.34C279.734 289.398 280.078 289.558 280.359 289.801C280.641 290.044 280.849 290.361 280.96 290.716C281.072 291.071 281.082 291.45 280.99 291.81C280.909 292.156 280.954 292.52 281.115 292.837C281.276 293.154 281.545 293.404 281.872 293.542C282.2 293.681 282.566 293.7 282.905 293.595C283.245 293.49 283.537 293.269 283.73 292.97C284.73 291.17 285.94 287.59 284.44 285.71C283.44 284.44 281.51 284.82 280.31 285.56C279.569 286.084 278.88 286.677 278.25 287.33C277.04 288.4 276.25 288.9 276.7 286.85C277.45 283.12 281.01 280.15 284.26 278.66L282.06 276.97C280.907 281.304 278.844 285.344 276.01 288.82L278.57 289.88C278.497 288.507 278.85 287.145 279.58 285.98C280.311 284.815 281.383 283.903 282.65 283.37H281.18L281.96 284.65C281.67 286.54 284.56 287.35 284.85 285.44C285.23 282.97 283.67 279.76 280.78 280.97C277.33 282.41 275.54 286.36 275.61 289.88C275.61 291.08 277.31 292.01 278.18 290.95C281.36 287.086 283.682 282.59 284.99 277.76C285.06 277.473 285.044 277.173 284.946 276.895C284.848 276.617 284.67 276.373 284.436 276.194C284.202 276.015 283.921 275.908 283.627 275.886C283.332 275.864 283.038 275.928 282.78 276.07C279.784 277.424 277.253 279.629 275.5 282.41C274.28 284.41 272.75 287.53 273.99 289.83C274.193 290.198 274.467 290.522 274.797 290.783C275.126 291.045 275.504 291.238 275.908 291.353C276.313 291.467 276.736 291.5 277.153 291.45C277.571 291.4 277.974 291.267 278.34 291.06C279.265 290.512 280.109 289.839 280.85 289.06C281.22 288.73 281.63 288.16 282.12 288.06C282.56 287.76 282.54 287.93 282.05 288.59C282.044 289.626 281.742 290.639 281.18 291.51L283.92 292.66C284.167 291.726 284.138 290.741 283.837 289.823C283.536 288.906 282.976 288.095 282.224 287.489C281.472 286.883 280.56 286.507 279.599 286.408C278.639 286.309 277.67 286.49 276.81 286.93L279.07 288.23C279.117 286.957 278.718 285.709 277.94 284.7C277.822 284.506 277.662 284.34 277.471 284.216C277.281 284.091 277.065 284.011 276.839 283.982C276.614 283.952 276.384 283.973 276.168 284.044C275.952 284.114 275.754 284.233 275.59 284.39C274.07 285.98 273.78 288.73 275.69 290.2C277.12 291.29 277.82 290.2 279.39 289.95C284.72 289.26 281.61 291.66 279.73 291.74C278.889 291.83 278.039 291.769 277.22 291.56C275.133 290.853 275.003 289.943 276.83 288.83C278.62 289.56 279.39 286.66 277.63 285.94L277.59 285.9Z" fill="#8257E5"/>
<path d="M275.18 291.38C276.41 295.38 271.33 296.7 268.92 298.08C267.229 299.028 265.754 300.319 264.59 301.87C262.07 305.25 261.13 309.55 260.3 313.6C259.92 315.49 262.81 316.29 263.2 314.4C263.657 311.424 264.508 308.522 265.73 305.77C267.53 302.19 270.11 300.99 273.47 299.15C276.83 297.31 279.26 294.46 278.07 290.58C277.51 288.74 274.61 289.53 275.18 291.38V291.38Z" fill="#8257E5"/>
<path d="M280.18 289.37C279.465 289.469 278.812 289.831 278.349 290.386C277.887 290.941 277.648 291.648 277.68 292.37C277.68 293.56 278.47 294.32 279.01 295.27C280.292 297.214 281.27 299.341 281.91 301.58C282.39 303.73 282.86 307.58 281.74 309.58C279.67 313.29 275.93 312.58 272.74 312.58C269.74 312.58 267.42 313.58 267.52 309.4C267.58 307.05 269.22 304.67 270.52 302.82L267.78 302.46C268.358 305.513 268.663 308.612 268.69 311.72C268.69 313.11 270.82 313.88 271.48 312.47C273.088 309.088 274.364 305.558 275.29 301.93L272.34 301.53L272.86 309.13C272.869 309.454 272.982 309.767 273.182 310.022C273.382 310.278 273.66 310.461 273.973 310.547C274.286 310.632 274.618 310.614 274.92 310.496C275.222 310.378 275.478 310.165 275.65 309.89C276 309.504 276.257 309.042 276.4 308.54C276.5 308.07 275.58 304.9 275.21 306.03L278.15 306.43L278.36 299.21L275.36 299.61C275.994 301.646 276.185 303.794 275.92 305.91C275.73 307.58 278.54 307.96 278.92 306.31L280.8 296.61L278.06 296.96C278.711 298.302 278.891 299.824 278.57 301.28C278.35 303.2 281.35 303.18 281.57 301.28C281.825 299.289 281.506 297.266 280.65 295.45C280.498 295.2 280.276 294.999 280.012 294.872C279.748 294.746 279.453 294.698 279.163 294.737C278.872 294.775 278.599 294.897 278.377 295.087C278.154 295.278 277.992 295.529 277.91 295.81L276.02 305.51L278.97 305.91C279.27 303.526 279.041 301.105 278.3 298.82C278.2 298.476 277.98 298.179 277.679 297.983C277.379 297.787 277.018 297.705 276.662 297.752C276.307 297.799 275.98 297.972 275.741 298.24C275.502 298.507 275.367 298.851 275.36 299.21L275.15 306.43C275.15 308.18 277.58 308.43 278.1 306.83L278.26 306.34C278.329 306.085 278.331 305.816 278.264 305.56C278.197 305.303 278.065 305.069 277.88 304.88C274.77 301.5 274.14 306.88 273.06 308.37L275.86 309.13L275.34 301.53C275.23 299.91 272.83 299.41 272.39 301.13C271.545 304.512 270.373 307.805 268.89 310.96L271.69 311.72C271.658 308.344 271.323 304.977 270.69 301.66C270.43 300.28 268.62 300.34 267.95 301.3C265.95 304.18 262.49 310.47 265.16 313.92C267.49 316.92 274.82 315.76 277.95 315.57C282.89 315.29 284.68 312.16 285.22 307.5C285.477 305.268 285.352 303.009 284.85 300.82C284.58 299.64 281.85 292.16 281.03 292.31C282.93 291.96 282.12 289.06 280.23 289.41L280.18 289.37Z" fill="#8257E5"/>
<path d="M274.37 296.11L266.18 306.92L268.77 308.43L274.77 299.75L272.03 298.59L269.04 310C268.959 310.346 269.004 310.71 269.165 311.027C269.326 311.344 269.595 311.594 269.922 311.733C270.25 311.871 270.616 311.89 270.955 311.785C271.295 311.68 271.587 311.459 271.78 311.16C273.141 308.906 274.668 306.756 276.35 304.73L273.85 303.27C273.179 305.853 271.884 308.233 270.08 310.2L272.59 311.66C272.744 310.278 273.111 308.929 273.68 307.66C274.45 305.93 272.01 304.4 271.09 306.14C270.244 307.725 269.278 309.243 268.2 310.68L270.94 311.04L271.55 308.19L268.81 307.83L269.25 310.33C269.322 310.582 269.459 310.81 269.646 310.993C269.833 311.176 270.064 311.307 270.317 311.374C270.57 311.44 270.836 311.44 271.089 311.373C271.342 311.305 271.573 311.173 271.76 310.99C274.296 308.365 276.33 305.298 277.76 301.94H275.18C275.858 303.191 276.334 304.541 276.59 305.94C276.95 307.74 279.34 307.07 279.53 305.54C279.96 302.19 280.18 298.817 280.19 295.44H277.19V301.73C277.19 303.36 279.86 303.84 280.14 302.13C280.338 300.613 280.838 299.151 281.61 297.83H278.98C279.614 298.852 279.959 300.027 279.98 301.23C279.98 301.628 280.138 302.009 280.419 302.291C280.701 302.572 281.082 302.73 281.48 302.73C281.878 302.73 282.259 302.572 282.541 302.291C282.822 302.009 282.98 301.628 282.98 301.23L283.36 299.23H280.47C280.76 301 281.86 310.97 277.95 309.8C277.29 309.64 277.1 309.68 277.38 309.91L278.27 308.01L280.36 303.58L277.56 302.82C277.74 304.88 277.93 307.82 276.69 309.58C275.69 311.01 272.61 311.58 271.04 310.74C270.004 310.001 269.118 309.071 268.43 308L266.38 310C268.04 311.21 270.73 314.18 272.87 314.35C274.5 314.48 275.87 313.13 276.94 312.05C278.581 310.354 279.861 308.342 280.702 306.137C281.542 303.931 281.926 301.578 281.83 299.22C281.83 298.822 281.672 298.441 281.391 298.159C281.109 297.878 280.728 297.72 280.33 297.72C279.932 297.72 279.551 297.878 279.269 298.159C278.988 298.441 278.83 298.822 278.83 299.22V302.64C278.83 303.038 278.988 303.419 279.269 303.701C279.551 303.982 279.932 304.14 280.33 304.14C280.728 304.14 281.109 303.982 281.391 303.701C281.672 303.419 281.83 303.038 281.83 302.64V294.25C281.83 293.852 281.672 293.471 281.391 293.189C281.109 292.908 280.728 292.75 280.33 292.75C279.932 292.75 279.551 292.908 279.269 293.189C278.988 293.471 278.83 293.852 278.83 294.25C278.825 296.261 278.651 298.268 278.31 300.25L281.26 300.65C281.025 298.261 280.915 295.861 280.93 293.46C280.925 293.101 280.792 292.755 280.554 292.486C280.315 292.216 279.988 292.042 279.632 291.993C279.276 291.945 278.914 292.026 278.613 292.222C278.312 292.417 278.091 292.715 277.99 293.06C277.54 294.97 276.99 296.85 276.46 298.72L279.2 298.36L278.99 297.56C278.85 295.65 275.85 295.64 275.99 297.56C276.023 298.37 276.235 299.162 276.61 299.88C277.19 301.1 279 300.67 279.35 299.52C279.92 297.64 280.43 295.76 280.88 293.86L277.93 293.46C277.915 295.861 278.025 298.261 278.26 300.65C278.41 302.19 280.89 302.85 281.2 301.05C281.599 298.791 281.81 296.504 281.83 294.21H278.83V302.6H281.83V299.18H278.83C279.006 302.952 277.696 306.643 275.18 309.46C274.79 309.903 274.369 310.317 273.92 310.7C273.21 311.38 272.56 311.28 271.99 310.39C270.57 309.8 269.1 308.28 267.86 307.39C266.62 306.5 264.92 308.26 265.8 309.44C268.1 312.5 271.53 315.91 275.8 314.44C280.29 312.85 280.9 306.77 280.56 302.77C280.45 301.44 278.46 300.54 277.77 302.02C276.77 304.13 275.77 306.23 274.77 308.35C274.42 309.09 273.77 310.11 273.87 310.99C274.2 313.24 276.93 312.87 278.61 312.74C285.12 312.25 284.09 303.02 283.34 298.38C283.09 296.84 280.85 297.08 280.45 298.38C280.132 299.293 279.967 300.253 279.96 301.22H282.96C282.851 299.501 282.37 297.825 281.55 296.31C281.416 296.086 281.226 295.901 280.999 295.773C280.772 295.644 280.516 295.577 280.255 295.577C279.994 295.577 279.738 295.644 279.511 295.773C279.284 295.901 279.094 296.086 278.96 296.31C278.066 297.854 277.462 299.548 277.18 301.31L280.18 301.71V295.42C280.18 295.022 280.022 294.641 279.741 294.359C279.459 294.078 279.078 293.92 278.68 293.92C278.282 293.92 277.901 294.078 277.619 294.359C277.338 294.641 277.18 295.022 277.18 295.42C277.17 298.797 276.95 302.17 276.52 305.52L279.47 305.12C279.131 303.485 278.555 301.909 277.76 300.44C277.626 300.216 277.436 300.031 277.209 299.903C276.982 299.774 276.726 299.707 276.465 299.707C276.204 299.707 275.948 299.774 275.721 299.903C275.494 300.031 275.304 300.216 275.17 300.44C273.866 303.572 271.991 306.434 269.64 308.88L272.15 309.54L271.71 307.04C271.48 305.71 269.6 305.67 268.97 306.68C268.473 307.432 268.136 308.278 267.979 309.166C267.823 310.053 267.85 310.963 268.06 311.84C268.31 313.26 270.11 313.11 270.8 312.2C271.878 310.766 272.844 309.252 273.69 307.67L271.1 306.15C270.408 307.644 269.937 309.231 269.7 310.86C269.52 312.18 271.09 313.56 272.21 312.32C274.36 309.968 275.916 307.136 276.75 304.06C277.12 302.7 275.24 301.41 274.24 302.6C272.4 304.805 270.729 307.145 269.24 309.6L271.98 310.76L275.03 299.39C275.111 299.044 275.066 298.68 274.905 298.363C274.744 298.046 274.475 297.796 274.148 297.657C273.82 297.519 273.454 297.5 273.115 297.605C272.775 297.71 272.483 297.931 272.29 298.23L266.29 306.92C265.17 308.53 267.74 309.92 268.88 308.43L277.04 297.63C278.2 296.09 275.6 294.63 274.45 296.11H274.37Z" fill="#8257E5"/>
<path d="M401.95 332.2C413.95 324.86 423.49 313.91 434.09 304.75C445.59 294.82 457.66 285.57 470.09 276.81C494.23 259.81 519.58 244.6 544.91 229.43C545.238 229.222 545.473 228.895 545.565 228.518C545.657 228.141 545.6 227.742 545.404 227.407C545.208 227.071 544.89 226.825 544.516 226.719C544.143 226.613 543.742 226.657 543.4 226.84C518.07 242.01 492.71 257.19 468.57 274.22C457.18 282.22 446.06 290.7 435.4 299.7C423.8 309.5 413.47 321.7 400.4 329.61C398.75 330.61 400.26 333.21 401.91 332.2H401.95Z" fill="#8257E5"/>
<path d="M583.64 182.85C570.64 184.17 556.64 187.48 548.64 198.85C541.73 208.63 541.88 225.69 548.37 235.73C555.74 247.14 570.8 247.55 582.5 243.86C594.2 240.17 606.31 233.7 606.2 219.72C606.14 212.22 603.43 204.41 600.44 197.61C597.86 191.74 593.29 186.61 586.37 187.26C584.46 187.44 584.44 190.44 586.37 190.26C595.64 189.4 598.62 200.41 600.82 207.36C602.82 213.85 604.67 221.53 601.53 227.98C598.39 234.43 590.82 237.72 584.35 240.08C577.35 242.62 569.66 244.17 562.35 242.08C547.87 238.03 543.87 219.68 548.04 206.66C552.84 191.66 569.84 187.25 583.69 185.85C585.59 185.66 585.61 182.66 583.69 182.85H583.64Z" fill="#8257E5"/>
<path d="M603.64 298.85C590.64 300.17 576.64 303.48 568.64 314.85C561.73 324.63 561.88 341.69 568.37 351.73C575.74 363.14 590.8 363.55 602.5 359.86C614.2 356.17 626.31 349.7 626.2 335.72C626.14 328.22 623.43 320.41 620.44 313.61C617.86 307.74 613.29 302.61 606.37 303.26C604.46 303.44 604.44 306.44 606.37 306.26C615.64 305.4 618.62 316.41 620.82 323.36C622.82 329.85 624.67 337.53 621.53 343.98C618.39 350.43 610.82 353.72 604.35 356.08C597.35 358.62 589.66 360.17 582.35 358.08C567.87 354.03 563.87 335.68 568.04 322.66C572.84 307.66 589.84 303.25 603.69 301.85C605.59 301.66 605.61 298.66 603.69 298.85H603.64Z" fill="#8257E5"/>
<path d="M564.03 212.06L573.5 222.86C573.687 223.041 573.919 223.17 574.171 223.235C574.423 223.301 574.688 223.299 574.939 223.232C575.191 223.165 575.421 223.033 575.607 222.851C575.793 222.668 575.928 222.44 576 222.19C578 216.93 577.62 211.48 578.09 205.95C578.608 200.234 580.043 194.639 582.34 189.38C586.954 178.712 594.776 169.747 604.72 163.73C606.37 162.73 604.86 160.13 603.21 161.14C593.405 167.044 585.539 175.685 580.58 186C578.152 191.019 576.468 196.365 575.58 201.87C574.58 208.36 575.49 215.16 573.09 221.39L575.6 220.72L566.18 209.94C564.9 208.49 562.79 210.62 564.06 212.06H564.03Z" fill="#8257E5"/>
<path d="M406.78 343.89C458.36 342.317 509.953 341.983 561.56 342.89C563.49 342.89 563.49 339.89 561.56 339.89C509.967 338.97 458.373 339.303 406.78 340.89C404.85 340.95 404.84 343.95 406.78 343.89Z" fill="#8257E5"/>
<path d="M572.34 314.31C589.972 321.23 606.934 329.753 623.01 339.77C624.65 340.77 626.16 338.2 624.52 337.18C608.232 327.039 591.046 318.416 573.18 311.42C571.39 310.71 570.61 313.61 572.39 314.31H572.34Z" fill="#8257E5"/>
<path d="M604.36 300.72C586.48 321.564 576.122 347.812 574.95 375.25C574.87 377.18 577.87 377.18 577.95 375.25C579.086 348.6 589.132 323.102 606.48 302.84C607.73 301.38 605.62 299.25 604.36 300.72Z" fill="#8257E5"/>
<path d="M204.41 333L316.18 331.54L329.03 331.37C331.34 331.37 333.65 331.29 335.96 331.28C339.21 331.28 341.4 333.98 341.34 337.28C341.19 344.28 336.79 344.03 331.03 344.28L317.14 344.91L260.58 347.4C250.45 347.85 240.31 348.4 230.18 348.75C221.04 349.03 203.66 346.05 207.72 332.75C208.28 330.9 205.39 330.11 204.82 331.95C202.82 338.49 206.36 345.13 212.06 348.56C220.15 353.42 230.81 351.77 239.74 351.37L309.18 348.22L326.04 347.47C330.36 347.27 336.37 348.15 340.34 346.14C345 343.79 345.82 334.46 342.88 330.53C341.37 328.53 339.25 328.35 336.88 328.26C330.66 328.02 324.33 328.43 318.1 328.51L283.48 328.97L204.37 329.97C202.44 329.97 202.44 332.97 204.37 332.97L204.41 333Z" fill="#8257E5"/>
<path d="M655.99 700.5C653.47 702.08 650.59 702.97 647.99 704.36C645.39 705.75 642.86 707.84 642.12 710.72C641.844 711.614 641.89 712.576 642.25 713.44C642.897 714.483 643.887 715.268 645.05 715.66C650.332 718.006 656.037 719.249 661.816 719.315C667.595 719.38 673.326 718.266 678.66 716.04C680.537 715.138 682.475 714.369 684.46 713.74C686.905 713.241 689.394 712.987 691.89 712.98C694.513 712.827 697.123 712.493 699.7 711.98C700.996 711.836 702.223 711.326 703.24 710.51C704.168 709.441 704.725 708.101 704.83 706.69C706.013 698.899 704.229 690.948 699.83 684.41C699.276 683.494 698.533 682.706 697.65 682.1C696.574 681.544 695.39 681.226 694.18 681.17C689.18 680.56 683.94 679.44 678.89 679.32C675.27 679.24 673.45 680.96 670.89 683.45C665.6 688.74 662.51 696.43 655.99 700.5Z" fill="#323444"/>
<path d="M729.68 699.76C729.68 704.66 730.27 709.85 733.24 713.76C734.598 715.451 736.243 716.889 738.1 718.01C744.38 722.01 752.7 723.48 759.32 720.09C760.389 719.61 761.304 718.841 761.96 717.87C762.96 716.13 762.43 713.96 761.87 712.04L752.29 678.84C746.1 679.79 737 680.46 731.5 683.6C727.51 685.87 729.68 695.38 729.68 699.76Z" fill="#323444"/>
<path d="M650.37 495.33C649.79 497.16 647.69 498.01 646.54 499.55C645.19 501.36 645.33 503.87 645.82 506.07C646.425 509.314 647.949 512.316 650.21 514.72C651.357 515.911 652.773 516.81 654.339 517.342C655.904 517.874 657.575 518.024 659.21 517.78C662.43 517.17 665.21 514.32 665.32 511.05C665.262 509.563 664.944 508.097 664.38 506.72L657.56 487C657.532 486.861 657.475 486.729 657.392 486.613C657.309 486.498 657.203 486.401 657.08 486.33C656.823 486.273 656.553 486.319 656.33 486.46C654.72 487.22 651.49 488.02 650.55 489.69C649.61 491.36 651.05 493.52 650.37 495.33Z" fill="#FBB3B2"/>
<path d="M647.18 494.34C649.67 493.95 651.85 492.49 654.18 491.53C656.51 490.57 659.43 490.2 661.39 491.8C661.95 492.26 662.49 492.89 663.22 492.88C662.227 487.99 660.725 483.218 658.74 478.64C658.67 478.421 658.534 478.229 658.35 478.09C658.077 477.979 657.773 477.979 657.5 478.09L650.77 479.85C648.28 480.5 647.99 480.3 648.18 482.75C648.23 483.84 648.79 494.34 647.18 494.34Z" fill="#323444"/>
<path d="M646.44 351.94C645.44 353.48 645.44 355.4 645.44 357.21C645.44 366.06 645.53 374.96 646.84 383.72C647.15 385.82 647.54 387.92 647.74 390.04C647.967 392.991 648.013 395.953 647.88 398.91L646.88 437.41C646.76 442.12 646.52 447.18 643.61 450.88C642.728 452.12 642.313 453.633 642.44 455.15C643.2 464.81 644.8 474.39 646.39 483.94C648.95 482.785 651.747 482.253 654.552 482.387C657.358 482.521 660.091 483.317 662.53 484.71C667.575 468.846 670.366 452.351 670.82 435.71C671.05 427.52 670.7 419.28 671.96 411.19C674.07 397.57 673.21 383.6 671.66 369.9C671.17 365.56 670.13 361.09 667.35 357.73C664.718 354.79 661.213 352.771 657.35 351.97C653.65 351 650.34 352 646.44 351.94Z" fill="#5B5583"/>
<path opacity="0.1" d="M646.44 351.94C645.44 353.48 645.44 355.4 645.44 357.21C645.44 366.06 645.53 374.96 646.84 383.72C647.15 385.82 647.54 387.92 647.74 390.04C647.967 392.991 648.013 395.953 647.88 398.91L646.88 437.41C646.76 442.12 646.52 447.18 643.61 450.88C642.728 452.12 642.313 453.633 642.44 455.15C643.2 464.81 644.8 474.39 646.39 483.94C648.95 482.785 651.747 482.253 654.552 482.387C657.358 482.521 660.091 483.317 662.53 484.71C667.575 468.846 670.366 452.351 670.82 435.71C671.05 427.52 670.7 419.28 671.96 411.19C674.07 397.57 673.21 383.6 671.66 369.9C671.17 365.56 670.13 361.09 667.35 357.73C664.718 354.79 661.213 352.771 657.35 351.97C653.65 351 650.34 352 646.44 351.94Z" fill="black"/>
<path d="M658.66 463.59C651.953 497.959 655.615 533.547 669.18 565.83C670.352 568.22 671.174 570.766 671.62 573.39C672.17 578.29 669.91 583 668.62 587.74C665.62 598.52 667.35 610 669.27 621.03C670.07 625.63 670.893 630.227 671.74 634.82C672.57 639.3 673.37 644.17 671.29 648.23C673.08 655.69 674.14 663.08 675.93 670.54C676.12 671.13 676.178 671.755 676.1 672.37C675.739 673.346 675.104 674.197 674.27 674.82C672.936 676.173 671.977 677.849 671.488 679.685C670.999 681.521 670.996 683.453 671.48 685.29C676.05 682.01 682.42 683.16 687.64 685.29C692.86 687.42 698 690.29 703.64 690.29C702.82 683.67 702.03 676.72 704.47 670.51C705.89 666.91 708.39 663.51 708.32 659.66C708.25 656.21 706.14 653.13 705.63 649.72C705.44 647.598 705.521 645.461 705.87 643.36C707.21 631.12 705.69 618.76 704.17 606.54C703.998 604.13 703.431 601.765 702.49 599.54C701.78 598.1 700.72 596.72 700.74 595.11C700.74 593.24 702.25 591.72 702.81 589.94C703.81 586.66 701.97 582.2 704.74 580.17C712.04 574.81 709.24 562.01 709.08 552.96C708.953 545.153 708.62 537.353 708.08 529.56C712.676 542.484 714.555 556.217 713.6 569.9C713.28 574.38 712.69 579.09 714.44 583.23C715.78 586.41 718.44 589.03 719.16 592.4C719.61 594.48 719.29 596.63 719.39 598.75C719.49 600.87 720.21 603.18 722.04 604.25C722.18 613.89 723.04 624.2 723.19 633.84C723.093 638.768 723.495 643.693 724.39 648.54C724.839 650.082 725.088 651.675 725.13 653.28C724.904 655.293 724.372 657.259 723.55 659.11C721.807 664.27 721.352 669.779 722.223 675.155C723.094 680.532 725.266 685.614 728.55 689.96C730.91 685.77 735.83 683.55 740.63 683.2C745.43 682.85 750.17 684.06 754.82 685.28C754.109 679.437 755.272 673.52 758.14 668.38C758.909 667.222 759.499 665.954 759.89 664.62C760.43 662.08 759.17 659.55 758.49 657.04C757.38 653.04 757.77 648.73 758.03 644.55C758.903 630.551 758.282 616.498 756.18 602.63C755.855 599.898 755.214 597.214 754.27 594.63C753.91 593.71 753.47 592.83 753.17 591.9C752.698 590.232 752.429 588.513 752.37 586.78L751.22 570.78C750.41 559.57 754.09 548.5 756.66 537.56C757.81 532.66 759.06 527.77 759.83 522.79C760.88 516.01 761.05 509.08 762.59 502.39C763.97 496.39 766.46 490.54 766.98 484.39C767.78 474.86 763.82 465.65 759.98 456.91C758.38 453.31 752.33 453.67 748.44 453.03C720.85 448.5 691.79 448.47 665.77 458.68C663.079 459.795 660.656 461.468 658.66 463.59V463.59Z" fill="#3C354C"/>
<path d="M678.55 286.1L681.61 298C682.442 300.729 682.903 303.558 682.98 306.41C683.012 307.45 682.781 308.482 682.31 309.41C681.806 310.172 681.161 310.831 680.41 311.35C678.32 312.94 676.87 316.65 674.48 317.75C675.71 319.89 677.41 318.5 679.63 319.57C683.54 321.47 687.12 324.2 691.36 325.14C695.36 326.02 699.56 325.19 703.53 324.14C709.16 322.61 714.76 320.5 719.29 316.81C723.82 313.12 726.4 309.86 726.38 304.03C721.38 304.62 716.93 299.57 714.72 295.03C713.954 293.304 713.39 291.496 713.04 289.64L710.36 277.85C707.44 278.49 705.06 280.58 702.27 281.67C699.48 282.76 696.18 282.86 693.08 283C687.577 283.25 682.105 283.959 676.72 285.12C675.98 285.27 675.05 285.74 675.23 286.46" fill="#FBB3B2"/>
<path opacity="0.1" d="M678.55 286.1L681.61 298C682.442 300.729 682.903 303.558 682.98 306.41C683.012 307.45 682.781 308.482 682.31 309.41C681.806 310.172 681.161 310.831 680.41 311.35C678.32 312.94 676.87 316.65 674.48 317.75C675.71 319.89 677.41 318.5 679.63 319.57C683.54 321.47 687.12 324.2 691.36 325.14C695.36 326.02 699.56 325.19 703.53 324.14C709.16 322.61 714.76 320.5 719.29 316.81C723.82 313.12 726.4 309.86 726.38 304.03C721.38 304.62 716.93 299.57 714.72 295.03C713.954 293.304 713.39 291.496 713.04 289.64L710.36 277.85C707.44 278.49 705.06 280.58 702.27 281.67C699.48 282.76 696.18 282.86 693.08 283C687.577 283.25 682.105 283.959 676.72 285.12C675.98 285.27 675.05 285.74 675.23 286.46" fill="black"/>
<path d="M691.69 292.66C706.315 292.66 718.17 280.804 718.17 266.18C718.17 251.555 706.315 239.7 691.69 239.7C677.066 239.7 665.21 251.555 665.21 266.18C665.21 280.804 677.066 292.66 691.69 292.66Z" fill="#FBB3B2"/>
<path d="M698.98 309.83C700.396 306.772 702.44 304.046 704.98 301.83C708.71 298.56 713.81 295.91 714.69 291.03L722.77 300.44C723.209 300.876 723.55 301.401 723.77 301.98C723.872 302.523 723.857 303.081 723.726 303.617C723.595 304.153 723.351 304.656 723.01 305.09C721.01 308.28 717.86 310.56 714.88 312.87C708.05 318.28 701.51 324.048 695.29 330.15C695.016 330.468 694.649 330.692 694.24 330.79C693.854 330.801 693.473 330.692 693.15 330.48C687.783 327.662 683.033 323.8 679.18 319.12C678.89 318.77 678.53 318.37 678.06 318.4C677.777 318.452 677.515 318.588 677.31 318.79C674.62 320.99 671.68 323.62 668.23 323.28C672.7 320.07 675.23 314.71 676.17 309.28C676.356 307.422 676.738 305.588 677.31 303.81C677.606 302.92 678.117 302.118 678.797 301.472C679.477 300.827 680.306 300.359 681.21 300.11C679.03 303.44 680.52 308.16 683.45 310.85C686.297 313.266 689.71 314.921 693.37 315.66C696.77 316.3 697.77 312.45 698.98 309.83Z" fill="#323444"/>
<path d="M664.53 466.31C668.3 467.24 671.87 468.82 675.53 469.99C682.201 472.079 689.221 472.817 696.18 472.16C698.322 472.113 700.405 471.45 702.18 470.25C702.65 469.87 703.08 469.42 703.58 469.07C704.416 468.568 705.323 468.194 706.27 467.96C715.44 465.09 723.12 458.9 730.57 452.84C730.81 452.64 731.08 452.39 731.06 452.07C731.026 451.852 730.92 451.652 730.76 451.5L726.84 447C716.56 448.75 706.03 448.09 695.6 447.83C693.459 447.735 691.313 447.792 689.18 448C687.12 448.24 685.09 448.76 683.06 449.2C675.35 450.88 667.47 451.52 659.66 452.62C659.114 452.66 658.584 452.824 658.11 453.1C657.781 453.355 657.5 453.666 657.28 454.02L654.54 457.87C653.476 459.165 652.693 460.667 652.24 462.28C651.6 465.28 652.94 466.28 655.49 465.89C658.502 465.449 661.571 465.592 664.53 466.31Z" fill="#323444"/>
<path d="M695.18 325.57C692.121 322.435 688.653 319.728 684.87 317.52C683.342 316.549 681.646 315.871 679.87 315.52C678.976 315.344 678.055 315.365 677.17 315.583C676.286 315.8 675.46 316.209 674.75 316.78C673.86 317.57 673.3 318.67 672.44 319.5C671.358 320.409 670.117 321.111 668.78 321.57C664.228 323.515 659.913 325.974 655.92 328.9C653.743 330.423 651.782 332.232 650.09 334.28C645.56 340.08 644.88 347.97 645 355.33C645.09 360.45 650 364.25 653.38 368.08C656.55 371.849 659.419 375.861 661.96 380.08C663.78 382.96 665.68 386.08 665.45 389.51C665.26 392.32 663.62 394.96 663.88 397.76C663.97 398.76 664.29 399.68 664.38 400.65C664.56 402.65 663.77 404.65 663.57 406.65C663.3 409.48 664.22 412.29 664.27 415.14C664.233 417.091 663.985 419.032 663.53 420.93C661.61 430.07 659.2 439.26 659.69 448.59L654.15 449.59C654.675 450.104 655.071 450.735 655.307 451.431C655.543 452.127 655.611 452.869 655.507 453.596C655.403 454.323 655.129 455.016 654.707 455.618C654.285 456.22 653.728 456.714 653.08 457.06C661.73 459.95 671.08 458.49 680.25 458.48C687.84 458.48 695.4 459.48 702.98 459.34C710.56 459.2 718.38 457.83 724.63 453.54C726.33 452.38 727.89 451.02 729.68 450.01C732.078 448.768 734.661 447.923 737.33 447.51C742.273 446.567 747.298 446.118 752.33 446.17C754.79 446.17 757.47 446.27 759.43 444.79C761.59 443.15 762.14 440.18 762.43 437.49C762.72 434.65 762.9 431.8 762.95 428.95C763.034 426.731 762.917 424.508 762.6 422.31C762.3 420.703 761.909 419.113 761.43 417.55L757.66 404.27C756.1 398.79 758.27 392.78 758.73 387.1C758.84 385.76 758.86 384.2 757.83 383.34C757.46 383.03 756.95 382.82 756.83 382.34C756.776 382.112 756.77 381.876 756.811 381.645C756.852 381.415 756.94 381.195 757.07 381C759.07 377 762.07 373.47 764.81 369.86C769.412 363.528 773.684 356.962 777.61 350.19C776.381 336.018 770.413 322.674 760.67 312.31C758.67 310.14 756.38 308.06 753.58 307.08C751.75 306.521 749.853 306.215 747.94 306.17C740.1 305.64 731.94 305.17 725.11 301.23C724.62 300.89 724.065 300.656 723.48 300.54C721.97 300.37 720.87 301.86 719.89 303.04C717.37 306.04 713.66 307.76 710.4 309.97C704.32 314.1 699.57 319.78 695.18 325.57Z" fill="#5B5583"/>
<path d="M778.29 354.28C779.85 359.22 779.7 364.5 780.21 369.65C780.512 372.758 781.057 375.837 781.84 378.86C782.197 380.521 782.84 382.108 783.74 383.55C784.64 384.87 785.93 385.94 786.5 387.43C786.812 388.439 786.95 389.494 786.91 390.55L787.03 397.45C787.287 401.106 786.73 404.774 785.4 408.19L781.09 421.3C778.76 428.4 776.37 435.61 772.17 441.79C771.578 442.836 770.682 443.677 769.6 444.2C768.753 444.424 767.885 444.558 767.01 444.6C765.485 444.872 764.103 445.667 763.101 446.848C762.099 448.028 761.54 449.521 761.52 451.07C760.519 449.608 759.27 448.332 757.83 447.3L749.06 440.3C746.06 437.86 742.93 435.38 739.29 433.97C744.186 432.441 748.532 429.524 751.802 425.572C755.072 421.621 757.124 416.805 757.71 411.71C757.707 410.193 758.049 408.695 758.71 407.33C759.44 406.15 760.79 405.25 760.89 403.86C761.01 402.11 759.03 400.79 759.03 399.04C759.03 397.88 759.89 396.92 760.27 395.83C760.625 394.483 760.625 393.067 760.27 391.72L759.06 385C758.989 384.327 758.785 383.674 758.46 383.08C758.007 382.51 757.505 381.982 756.96 381.5C754.88 379.17 755.8 375.5 756.96 372.63C759.624 366.259 763.056 360.238 767.18 354.7C768.648 352.84 770.007 350.897 771.25 348.88C772.31 347.04 772.55 344.49 773.67 342.88C775.11 346.66 777.06 350.39 778.29 354.28Z" fill="#5B5583"/>
<path d="M738.98 434.38C738.534 434.711 738.148 435.117 737.84 435.58C736.662 437.059 735.092 438.178 733.31 438.81C734.31 439.53 735.22 440.24 736.16 440.97C743.115 446.341 749.484 452.432 755.16 459.14C755.79 456.89 759.56 457.05 760.48 454.9C760.697 454.285 760.765 453.627 760.68 452.98C760.489 449.611 760.007 446.266 759.24 442.98C758.937 441.288 758.253 439.688 757.24 438.3C755.84 436.61 753.66 435.8 751.58 435.1C748.43 434 742.18 432.45 738.98 434.38Z" fill="#323444"/>
<path d="M726.48 442.24C723.48 444.46 720.85 447.24 717.48 448.76C715.1 449.84 712.39 450.31 710.31 451.92C711.44 454.41 714.38 455.7 717.11 455.6C719.842 455.332 722.462 454.371 724.72 452.81C726.51 451.71 728.61 450.43 730.56 451.2C730.86 452.72 729.56 454.15 729.56 455.69C729.56 457.23 730.84 458.35 732.1 459.16C738.1 463.03 745.82 462.71 752.97 462.26C753.38 462.275 753.784 462.156 754.12 461.92C754.275 461.739 754.393 461.529 754.467 461.303C754.54 461.076 754.569 460.837 754.55 460.6C754.64 459.02 754.68 457.45 754.69 455.87C754.892 454.596 754.727 453.291 754.213 452.108C753.699 450.924 752.859 449.912 751.79 449.19C747.91 445.855 743.725 442.892 739.29 440.34C734.89 437.79 730.43 439.3 726.48 442.24Z" fill="#FBB3B2"/>
<path d="M700.99 255.11C696.55 255.64 693.32 259.11 693.77 262.88C694.22 266.65 698.18 269.25 702.62 268.71C707.06 268.17 710.29 264.71 709.84 260.95C709.39 257.19 705.43 254.58 700.99 255.11ZM702.5 267.67C698.74 268.12 695.39 265.91 695 262.73C694.61 259.55 697.36 256.61 701.11 256.16C704.86 255.71 708.22 257.92 708.61 261.1C709 264.28 706.25 267.22 702.5 267.67V267.67Z" fill="#3C354C"/>
<path d="M679.35 257.71C674.91 258.24 671.68 261.71 672.13 265.47C672.58 269.23 676.54 271.84 680.98 271.31C685.42 270.78 688.65 267.31 688.2 263.54C687.75 259.77 683.79 257.18 679.35 257.71ZM680.86 270.26C677.1 270.71 673.75 268.5 673.37 265.33C672.99 262.16 675.72 259.21 679.48 258.75C683.24 258.29 686.59 260.51 686.97 263.69C687.35 266.87 684.61 269.81 680.86 270.26Z" fill="#3C354C"/>
<path d="M663.28 259.64L672.93 261.7L671.98 264.24L662.88 261.57L663.28 259.64Z" fill="#3C354C"/>
<path d="M717.07 253.18L708.17 257.47L709.7 259.71L717.91 254.96L717.07 253.18Z" fill="#3C354C"/>
<path d="M687.31 261.06L694.08 260.25L693.73 261.93L687.92 262.32L687.31 261.06Z" fill="#3C354C"/>
<path d="M674.18 258.79C674.817 257.42 675.158 255.931 675.18 254.42C675.204 253.516 675.359 252.62 675.64 251.76C676.132 250.668 676.879 249.711 677.82 248.97C680.94 246.33 685.41 244.97 689.82 244.78C694.629 244.559 699.412 245.593 703.7 247.78C705.01 248.394 706.183 249.264 707.15 250.34C708.55 252.05 708.85 254.26 710.26 255.95C711.222 256.975 712.433 257.735 713.775 258.156C715.117 258.576 716.545 258.643 717.92 258.35C718.41 256.61 717.77 254.77 718.02 252.99C718.414 251.465 718.946 249.979 719.61 248.55C721.16 243.98 718.9 238.68 714.24 235.95C712.61 234.95 710.68 234.3 709.46 232.95C708.24 231.6 707.95 230.2 707.11 228.85C704.88 225.28 699.11 223.61 694.72 225.26C693.34 225.78 692.12 226.57 690.72 227.13C688.12 228.2 685.16 228.39 682.3 228.75C679.481 229.011 676.724 229.734 674.14 230.89C671.67 232.11 669.6 234.07 669.03 236.41C668.76 237.49 668.82 238.61 668.55 239.68C667.17 245.11 658.26 247.75 657.76 253.29C657.58 255.29 658.67 257.21 660.03 258.84C660.97 259.95 663.22 262.92 664.81 263.35C666.4 263.78 667.61 262.27 669.13 261.75C671.53 261 672.98 260.84 674.18 258.79Z" fill="#CBCEDA"/>
<path d="M786.99 611C786.99 661.24 818.51 701.9 857.46 701.9Z" fill="#04BF58"/>
<path d="M857.46 701.91C857.46 651.1 892.64 609.99 936.11 609.99Z" fill="#04D361"/>
<path d="M812.53 615.56C812.53 663.29 832.63 701.91 857.46 701.91Z" fill="#04D361"/>
<path d="M857.46 701.91C857.46 636.99 898.12 584.45 948.36 584.45Z" fill="#04BF58"/>
<path opacity="0.1" d="M854.41 719.27C864.086 719.27 871.93 717.945 871.93 716.31C871.93 714.675 864.086 713.35 854.41 713.35C844.734 713.35 836.89 714.675 836.89 716.31C836.89 717.945 844.734 719.27 854.41 719.27Z" fill="#8257E5"/>
<path d="M842.64 702.55C842.64 702.55 852.64 702.24 855.64 700.1C858.64 697.96 871.01 695.39 871.76 698.83C872.51 702.27 886.76 715.94 875.49 716.03C864.22 716.12 849.27 714.27 846.27 712.44C843.27 710.61 842.64 702.55 842.64 702.55Z" fill="#A8A8A8"/>
<path opacity="0.2" d="M875.7 714.83C864.42 714.92 849.49 713.07 846.48 711.24C844.19 709.85 843.28 704.84 842.97 702.54H842.64C842.64 702.54 843.27 710.6 846.28 712.43C849.29 714.26 864.22 716.11 875.5 716.02C878.76 716.02 879.88 714.83 879.82 713.12C879.37 714.16 878.18 714.81 875.7 714.83Z" fill="black"/>
<path d="M22.49 640.36C22.49 680.36 47.56 712.68 78.55 712.68Z" fill="#04BF58"/>
<path d="M78.55 712.68C78.55 672.26 106.55 639.55 141.12 639.55Z" fill="#04D361"/>
<path d="M42.8 644C42.8 682 58.8 712.7 78.55 712.7Z" fill="#04D361"/>
<path d="M78.55 712.68C78.55 661.03 110.9 619.23 150.87 619.23Z" fill="#04BF58"/>
<path opacity="0.1" d="M76.12 726.5C83.8188 726.5 90.06 725.443 90.06 724.14C90.06 722.837 83.8188 721.78 76.12 721.78C68.4211 721.78 62.18 722.837 62.18 724.14C62.18 725.443 68.4211 726.5 76.12 726.5Z" fill="#8257E5"/>
<path d="M66.76 713.19C66.76 713.19 74.71 712.94 77.1 711.19C79.49 709.44 89.34 707.44 89.93 710.19C90.52 712.94 101.88 723.8 92.93 723.87C83.98 723.94 72.07 722.47 69.68 721.02C67.29 719.57 66.76 713.19 66.76 713.19Z" fill="#A8A8A8"/>
<path opacity="0.2" d="M93.06 723C84.06 723.07 72.2 721.6 69.81 720.14C67.99 719.04 67.27 715.05 67.02 713.22H66.76C66.76 713.22 67.26 719.63 69.65 721.09C72.04 722.55 83.93 724.01 92.9 723.94C95.49 723.94 96.39 723 96.34 721.63C95.98 722.43 94.99 722.94 93.06 723Z" fill="black"/>
</g>
<defs>
<clipPath id="clip0">
<rect width="948.37" height="758" fill="white"/>
</clipPath>
</defs>
</svg>
