<svg width="599" height="352" fill="none" xmlns="http://www.w3.org/2000/svg"><path d="M305.753 349.21c1.213-6.364 4.979-12.199 10.267-15.924" stroke="#04D361" stroke-width=".779" stroke-miterlimit="10"/><path d="M305.589 351c.228-5.314 2.279-18.107 7.13-26.115" stroke="#04D361" stroke-width=".779" stroke-miterlimit="10"/><path d="M305.662 350.343c.839-9.478.766-19.952-.712-29.357" stroke="#04D361" stroke-width=".779" stroke-miterlimit="10"/><path d="m316.793 330.811-.141.25c-.659 1.165-1.318 2.328-2.13 3.428.213-.071.438-.157.672-.251l.364-.147c.257-.105.522-.213.773-.307.373-.139.76-.264 1.121-.317 1.674-.246 3.383-.179 5.025.035 1.281.168 2.559.421 3.816.671.408.081.815.162 1.218.239 1.66.317 3.293.58 4.939.602.934.013 1.926-.109 2.764-.431.835-.322 1.479-.827 1.805-1.564l.001-.001c.539-1.206-.016-2.796-1.14-3.731l-.001-.001c-1.113-.933-2.639-1.304-4.214-1.456-.573-.056-1.146-.085-1.733-.115l-.656-.034c-.81-.046-1.64-.111-2.462-.268l-.001-.001a21.21 21.21 0 0 1-1.447-.347 30.948 30.948 0 0 0-1.391-.359c-.913-.209-1.769-.315-2.607-.152l-4.575 4.257Zm0 0 .001-.002m-.001.002.001-.002m0 0c1.121-1.998 2.565-3.864 4.574-4.255l-4.574 4.255ZM312.107 326.007c.625-.523 1.217-1.171 1.83-1.864l.239-.271c.737-.836 1.511-1.715 2.371-2.4 2.357-1.884 5.212-3.339 8.288-3.577l-12.728 8.112Zm0 0c.031-.18.078-.389.142-.626.219-.806.607-1.834 1.051-2.896.673-1.608 1.45-3.239 1.923-4.232.152-.319.273-.572.349-.738 1.559-3.385 3.965-6.563 7.367-7.516 1.444-.404 2.947-.388 4.518-.248.536.048 1.089.111 1.65.175 1.046.121 2.121.244 3.166.274h.002c.503.012 1.015.004 1.515-.004.244-.004.485-.008.72-.009.732-.005 1.44.013 2.135.117 1.387.209 2.707.83 3.355 1.925l.001.001c.5.84.527 1.867.184 2.856a4.838 4.838 0 0 1-1.928 2.455c-1.81 1.147-4.135 1.229-6.416.976a51.335 51.335 0 0 1-1.942-.263c-.49-.072-.986-.145-1.502-.211-1.163-.148-2.353-.244-3.561-.149l-12.729 8.113Zm-.022.587v-.002.002ZM307.229 311.871v.001c.293 1.793-.005 3.635-.567 5.411-.04.127-.088.287-.144.47-.168.56-.404 1.34-.694 2.078-.192.488-.397.928-.606 1.25a1.83 1.83 0 0 1-.283.353c-.085.077-.133.091-.142.093h-.001c-.104.02-.315-.01-.652-.178a6.308 6.308 0 0 1-1.038-.69c-.722-.57-1.4-1.255-1.729-1.598-1.005-1.059-1.805-2.306-2.299-3.669l-.001-.002c-.578-1.574-.778-3.256-.978-5.009l-.013-.115c-.193-1.697-.393-3.459-.976-5.132-.663-1.895-1.792-3.589-2.874-5.212-.284-.426-.565-.847-.833-1.266-1.315-2.052-2.428-4.247-2.411-6.548.017-2.306 1.482-4.626 3.582-4.999h.001c1.385-.249 2.858.333 4.077 1.258h.001a9.715 9.715 0 0 1 3.519 5.303c.323 1.271.386 2.594.448 3.977l.002.056c.061 1.347.123 2.752.461 4.118.419 1.713 1.25 3.285 2.047 4.791l.181.343c.861 1.634 1.645 3.204 1.922 4.916Z" fill="#04D361" stroke="#04D361"/><path d="M305.57 349.448c-.62-8.373-2.772-17.833-7.449-24.8" stroke="#04D361" stroke-width=".779" stroke-miterlimit="10"/><path d="M296.993 318.35v.002c.67 1.868 1.083 3.825 1.428 5.798l.001.001c.018.104.05.237.081.369l.034.149a5.4 5.4 0 0 1 .105.567c.021.188.02.337-.002.445-.02.103-.051.129-.06.135-.004.004-.041.03-.169.011a1.638 1.638 0 0 1-.486-.177 4.961 4.961 0 0 1-.938-.652 8.173 8.173 0 0 1-.933-1.052 40.017 40.017 0 0 1-.326-.432c-.193-.256-.392-.523-.593-.77-2.712-3.335-6.995-4.938-11.132-5.531-2.07-.297-4.152-.375-6.218-.408-.546-.008-1.09-.014-1.632-.02-1.519-.016-3.025-.031-4.531-.115h-.003c-.937-.046-1.781-.148-2.406-.592-.816-.584-1.156-1.779-.906-2.869.249-1.078.992-2.032 1.908-2.819 2.023-1.739 4.71-2.616 7.421-2.793 2.712-.178 5.451.31 8.126 1.034 2.578.697 5.091 1.633 7.067 3.296 1.953 1.651 3.289 3.957 4.164 6.423Z" fill="#04D361" stroke="#04D361"/><path d="M305.397 350.343c-.364-7.305-3.647-14.427-8.954-19.45" stroke="#04D361" stroke-width=".779" stroke-miterlimit="10"/><path d="M293.663 327.061c-1.835-.976-3.913-1.612-5.963-2.187l5.963 2.187Zm0 0c.139.074.264.141.389.216h-.001l.012.007c.798.451 1.33 1.236 1.916 2.13.067.103.171.312.311.614l.135.292c.099.216.206.45.315.676l.101.208c-2.468-.676-5.184-.651-7.56-.628h-.028m4.41-3.515-4.41 3.515m0 0c-3.25.028-6.501.632-9.54 1.805l-.002.001c-.403.157-.796.32-1.184.481-1.478.614-2.872 1.192-4.378 1.275-.499.024-1.031-.048-1.46-.229-.424-.18-.706-.447-.817-.799-.176-.576.128-1.257.643-1.944m16.738-.59-16.738.59m0 0 .001-.002m-.001.002.001-.002m0 0c1.018-1.371 2.332-2.495 3.689-3.652m-3.689 3.652 3.689-3.652m0 0c1.769-1.504 3.522-2.95 5.625-3.359l-5.625 3.359Zm21.306 3.896a20.373 20.373 0 0 1-.629-1.291c-.194-.421-.364-.792-.485-.977-.574-.876-1.167-1.771-2.088-2.292a9.328 9.328 0 0 0-.41-.228l3.612 4.788Zm-15.681-7.255c1.889-.367 3.862.158 5.87.721l-5.87-.721ZM527.582 320.671v.001c-1.071 1.061-2.392 1.674-3.698 2.186a54.84 54.84 0 0 1-.949.362c-.993.373-1.948.732-2.835 1.238-2.504 1.432-4.312 4.014-5.399 6.788l-.039.099c-.407 1.046-.994 2.548-1.319 4.022-.167.76-.26 1.49-.23 2.13.03.642.181 1.152.461 1.517l.002.002c.634.835 1.751 1.009 3.136.78 1.363-.225 2.795-.813 3.831-1.249h.001c.379-.159.763-.326 1.152-.496 2.008-.874 4.139-1.802 6.359-1.898 2.403-.106 4.651.761 6.71 1.587l.056.023c2.07.831 4.086 1.64 6.225 1.649 2.144.009 4.433-1.013 5.407-2.906.409-.801.575-1.7.755-2.674l.101-.538c.221-1.142.521-2.362 1.397-3.332h.001c.898-.994 2.078-1.394 3.271-1.561.858-.12 1.776-.124 2.63-.128.312-.001.615-.003.904-.01h.001c2.399-.053 4.865-.7 6.72-2.257l.001-.001c1.864-1.555 2.955-4.133 2.365-6.277h-.001c-.488-1.775-1.971-3.041-3.543-4.309v-.001c-2.167-1.753-4.435-3.426-7.046-3.25-.93.067-1.847.366-2.834.688l-.073.024c-.992.324-2.058.665-3.165.705-1.397.049-2.66-.378-3.821-.97-.88-.45-1.733-1.012-2.544-1.547-.246-.162-.488-.322-.726-.476-2.089-1.346-4.534-2.326-6.642-1.312l-6.622 11.391Zm0 0c1.507-1.501 2.184-3.584 2.799-5.479m-2.799 5.479 2.799-5.479m0 0c.087-.267.172-.531.259-.788m-.259.788.259-.788m0 0c.72-2.145 1.743-4.245 3.563-5.124l-3.563 5.124Z" fill="#04D361" stroke="#04D361"/><path d="M513.615 339.072c12.137-10.437 26.298-17.349 41.581-20.289" stroke="#fff" stroke-width=".705" stroke-miterlimit="10" stroke-linecap="round" stroke-linejoin="round"/><path d="M525.615 323.02c.283-3.443-.364-7.031.766-10.291 2.015-5.808 9-8.839 10.751-14.729 2.097-7.04-4.304-14.226-3.191-21.485.465-3.059 2.225-5.753 3.319-8.647 1.094-2.895 1.377-6.52-.748-8.775-2.225-2.356-6.264-2.082-8.909-.201-2.644 1.881-4.167 4.931-5.407 7.935-1.231 3.004-2.316 6.145-4.404 8.638-3.803 4.538-10.642 6.529-12.721 12.071-2.115 5.643 1.888 11.615 2.599 17.596.538 4.529-.839 9.04-2.07 13.441-1.222 4.401-2.307 9.058-1.185 13.477 1.495 5.89 6.793 9.643 11.872 5.862 5.024-3.716 8.809-8.419 9.328-14.892Z" fill="#04D361"/><path d="M513.068 339.355c-2.015-21.02 2.599-43.82 13.377-61.973" stroke="#fff" stroke-width="1.136" stroke-miterlimit="10" stroke-linecap="round" stroke-linejoin="round"/><path d="M499.646 331.429c-2.216-3.132-3.484-7.049-6.493-9.432-3.447-2.739-8.225-2.767-12.602-3.123-4.386-.356-9.328-1.598-11.361-5.506-1.113-2.146-1.113-4.693-1.888-6.976-.857-2.511-2.608-4.593-3.839-6.94-1.222-2.346-1.869-5.332-.447-7.569 1.441-2.265 4.596-2.931 7.177-2.201 2.58.731 4.696 2.548 6.629 4.41 1.933 1.863 3.821 3.854 6.201 5.077 3.948 2.018 8.635 1.644 13.066 1.452 4.432-.183 9.265 0 12.694 2.831 2.817 2.328 4.103 5.99 5.252 9.469 1.659 4.976 3.355 9.934 4.969 14.929.994 3.068 2.891 7.77-.3 10.181-5.627 4.246-15.812-2.027-19.058-6.602Z" fill="#04D361"/><path d="M516.925 338.214c-7.039-16.363-21.939-30.297-39.775-36.442" stroke="#fff" stroke-width=".817" stroke-miterlimit="10" stroke-linecap="round" stroke-linejoin="round"/><path d="M111.359 337.462c2.015-3.004 3.182-6.857 5.89-9.058 3.11-2.511 7.386-2.182 11.325-2.228 3.931-.036 8.371-.922 10.231-4.72 1.022-2.082 1.031-4.657 1.751-6.913.784-2.474 2.371-4.446 3.493-6.729 1.112-2.283 1.714-5.251.465-7.616-1.277-2.392-4.095-3.296-6.411-2.748-2.316.548-4.231 2.228-5.972 3.963-1.742 1.735-3.447 3.607-5.599 4.666-3.556 1.753-7.751 1.023-11.727.502-3.975-.511-8.307-.676-11.398 1.927-2.544 2.145-3.72 5.752-4.787 9.176-1.523 4.904-3.082 9.789-4.569 14.711-.911 3.031-2.653 7.633.192 10.309 4.988 4.729 14.17-.859 17.116-5.242Z" fill="#04D361"/><path d="M95.82 343.05c6.438-16.015 19.897-28.991 35.928-33.894" stroke="#fff" stroke-width=".778" stroke-miterlimit="10" stroke-linecap="round" stroke-linejoin="round"/><path d="M86.994 329.053c-.22-3.169.291-6.465-.611-9.469-1.614-5.342-7.213-8.127-8.617-13.542-1.678-6.474 3.447-13.085 2.562-19.768-.374-2.813-1.787-5.287-2.663-7.954-.875-2.666-1.103-5.999.602-8.071 1.788-2.174 5.016-1.918 7.14-.183 2.116 1.735 3.338 4.538 4.331 7.296.985 2.757 1.86 5.652 3.53 7.944 3.045 4.173 8.525 5.999 10.185 11.103 1.696 5.196-1.514 10.683-2.079 16.189-.429 4.173.674 8.319 1.659 12.364s1.851 8.327.949 12.4c-1.195 5.415-5.444 8.866-9.511 5.396-4.021-3.424-7.058-7.752-7.477-13.705Z" fill="#04D361"/><path d="M97.042 344.073c1.614-19.33-2.088-40.304-10.714-57.005" stroke="#fff" stroke-width=".975" stroke-miterlimit="10" stroke-linecap="round" stroke-linejoin="round"/><path d="M35.2 313.594c-.739 3.168.793 6.994 3.21 9.368 2.416 2.383 5.553 3.488 8.535 3.753l7.805 2.575.394-.308c-1.06-1.358-2.453-1.984-3.894-2.303-1.04-.23-2.148-.308-3.183-.38a48.95 48.95 0 0 1-1.077-.082h-.001c-2.895-.257-5.913-1.328-8.228-3.611-2.329-2.288-3.763-5.944-3.074-8.898m-.487-.114.487.114m-.487-.114.487.113v.001m-.487-.114c.611-2.603 2.535-4.319 4.368-5.881 2.544-2.173 5.416-4.447 8.836-3.963 1.204.169 2.385.673 3.563 1.177 1.25.533 2.497 1.066 3.768 1.198m-20.048 7.583c.569-2.422 2.36-4.042 4.205-5.614v-.001c2.576-2.199 5.278-4.295 8.442-3.848v.001c1.138.159 2.264.64 3.466 1.153l.077.033c1.202.513 2.483 1.053 3.807 1.19m0 0 .051-.497m-.051.497c1.672.173 3.178-.304 4.56-1.012 1.048-.538 2.059-1.228 3.023-1.886.294-.201.584-.399.87-.589v-.001c2.481-1.659 5.422-2.808 8.039-1.255m-16.492 4.743.051-.497m0 0c2.716.281 5.014-1.288 7.232-2.802.299-.204.596-.407.893-.604 2.498-1.671 5.68-2.986 8.571-1.27m-.255.43h-.001l.256-.43m-.255.43c1.13.675 2.031 1.757 2.767 3.061.737 1.303 1.292 2.799 1.743 4.263v.001c.114.364.225.735.338 1.109.788 2.61 1.632 5.406 3.446 7.498m-8.294-15.932.255-.43m0 0c2.462 1.471 3.82 4.648 4.733 7.607l3.306 8.755m0 0c1.288 1.492 2.87 2.411 4.457 3.204.388.194.774.379 1.156.563 1.205.578 2.373 1.14 3.461 1.895v.001c3.102 2.146 5.369 5.819 6.754 9.691l.055.156c.513 1.438 1.255 3.518 1.683 5.546.222 1.051.355 2.067.335 2.958-.021.897-.198 1.616-.545 2.119l-.002.002c-.76 1.108-2.113 1.254-3.797.837-1.66-.411-3.414-1.321-4.674-1.991v-.001c-.453-.239-.91-.49-1.373-.743-1-.547-2.02-1.105-3.04-1.587-1.5-.71-3.055-1.286-4.665-1.468-2.884-.327-5.574.665-8.035 1.629l-.073.028c-2.468.967-4.875 1.91-7.464 1.746-2.593-.164-5.449-1.721-6.718-4.459l22.485-20.126Zm0 0 .378-.327-.379.326.001.001Zm8.648 25.422c-.464-.246-.93-.501-1.395-.755-2.452-1.342-4.93-2.697-7.504-2.989-2.745-.31-5.326.63-7.797 1.598l-.119.047c-2.433.953-4.93 1.932-7.632 1.761-2.744-.173-5.78-1.817-7.14-4.748l31.587 5.086Zm0 0c2.508 1.333 7.222 3.762 9.119.995l-9.119-.995Z" fill="#04D361" stroke="#04D361"/><path d="M97.699 343.854c-14.873-15.03-32.116-25.457-50.608-30.607" stroke="#fff" stroke-width=".899" stroke-miterlimit="10" stroke-linecap="round" stroke-linejoin="round"/><path d="M523.847 71.597a5.237 5.237 0 0 1-5.234 5.24 5.238 5.238 0 0 1-5.234-5.24 5.238 5.238 0 0 1 5.234-5.241 5.243 5.243 0 0 1 5.234 5.24ZM522.397 75.213l3.693 3.706M319.068 1l5.507 5.514M324.575 1l-5.507 5.514M397.995 318.459l5.506 5.515M403.501 318.459l-5.506 5.515M48.535 245.386v7.798M52.439 249.285h-7.797M31.6 185.515a4.738 4.738 0 0 1-4.733 4.739 4.738 4.738 0 0 1-4.733-4.739 4.737 4.737 0 0 1 4.733-4.739 4.743 4.743 0 0 1 4.732 4.739ZM228.027 300.134a4.737 4.737 0 0 1-4.733 4.739 4.737 4.737 0 0 1-4.732-4.739 4.737 4.737 0 0 1 4.732-4.739 4.744 4.744 0 0 1 4.733 4.739ZM540.339 214.786a4.737 4.737 0 0 1-4.732 4.739 4.737 4.737 0 0 1-4.733-4.739 4.738 4.738 0 0 1 4.733-4.739 4.743 4.743 0 0 1 4.732 4.739Z" stroke="#04D361" stroke-width="2" stroke-miterlimit="10" stroke-linecap="round" stroke-linejoin="round"/><path d="M2.928 102.464a1.215 1.215 0 1 1-2.428 0 1.215 1.215 0 1 1 2.428 0ZM14.9 102.464a1.215 1.215 0 1 1-2.427 0 1.215 1.215 0 1 1 2.428 0ZM26.864 102.464a1.215 1.215 0 1 1-2.428 0 1.215 1.215 0 1 1 2.428 0ZM38.837 102.464a1.215 1.215 0 1 1-2.428 0 1.215 1.215 0 1 1 2.428 0ZM50.8 102.464a1.215 1.215 0 1 1-2.427 0 1.215 1.215 0 1 1 2.428 0ZM62.773 102.464a1.215 1.215 0 1 1-2.428 0 1.215 1.215 0 1 1 2.428 0ZM2.928 114.444a1.215 1.215 0 1 1-2.428 0 1.215 1.215 0 1 1 2.428 0ZM14.9 114.444a1.215 1.215 0 1 1-2.427 0 1.215 1.215 0 1 1 2.428 0ZM26.864 114.444a1.215 1.215 0 1 1-2.428 0 1.215 1.215 0 1 1 2.428 0ZM38.837 114.444a1.215 1.215 0 1 1-2.428 0 1.215 1.215 0 1 1 2.428 0ZM50.8 114.444a1.215 1.215 0 1 1-2.427 0 1.215 1.215 0 1 1 2.428 0ZM62.773 114.444a1.215 1.215 0 1 1-2.428 0 1.215 1.215 0 1 1 2.428 0ZM2.928 126.433a1.215 1.215 0 1 1-2.428 0 1.215 1.215 0 1 1 2.428 0ZM14.9 126.433a1.215 1.215 0 1 1-2.427 0 1.215 1.215 0 1 1 2.428 0ZM26.864 126.433a1.215 1.215 0 1 1-2.428 0 1.215 1.215 0 1 1 2.428 0ZM38.837 126.433a1.215 1.215 0 1 1-2.428 0 1.215 1.215 0 1 1 2.428 0ZM50.8 126.433a1.215 1.215 0 1 1-2.427 0 1.215 1.215 0 1 1 2.428 0ZM62.773 126.433a1.215 1.215 0 1 1-2.428 0 1.215 1.215 0 1 1 2.428 0ZM2.928 138.413a1.215 1.215 0 1 1-2.428 0 1.215 1.215 0 1 1 2.428 0ZM14.9 138.413a1.215 1.215 0 1 1-2.427 0 1.215 1.215 0 1 1 2.428 0ZM26.864 138.413a1.215 1.215 0 1 1-2.428 0 1.215 1.215 0 1 1 2.428 0ZM38.837 138.413a1.215 1.215 0 1 1-2.428 0 1.215 1.215 0 1 1 2.428 0ZM50.8 138.413a1.215 1.215 0 1 1-2.427 0 1.215 1.215 0 1 1 2.428 0ZM62.773 138.413a1.215 1.215 0 1 1-2.428 0 1.215 1.215 0 1 1 2.428 0ZM187.624 328.189a1.215 1.215 0 1 1-2.428 0 1.215 1.215 0 1 1 2.428 0ZM199.596 328.189a1.215 1.215 0 1 1-2.428 0 1.215 1.215 0 1 1 2.428 0ZM211.56 328.189a1.215 1.215 0 1 1-2.428 0 1.215 1.215 0 1 1 2.428 0ZM223.533 328.189a1.215 1.215 0 1 1-2.428 0 1.215 1.215 0 1 1 2.428 0ZM235.496 328.189a1.215 1.215 0 1 1-2.428 0 1.215 1.215 0 1 1 2.428 0ZM187.624 340.178a1.215 1.215 0 1 1-2.428 0 1.215 1.215 0 1 1 2.428 0ZM199.596 340.178a1.215 1.215 0 1 1-2.428 0 1.215 1.215 0 1 1 2.428 0ZM211.56 340.178a1.215 1.215 0 1 1-2.428 0 1.215 1.215 0 1 1 2.428 0ZM223.533 340.178a1.215 1.215 0 1 1-2.428 0 1.215 1.215 0 1 1 2.428 0ZM235.496 340.178a1.215 1.215 0 1 1-2.428 0 1.215 1.215 0 1 1 2.428 0ZM490.93 28.398a1.215 1.215 0 1 1-1.214-1.217c.67 0 1.214.544 1.214 1.217ZM502.894 28.398a1.215 1.215 0 1 1-1.214-1.217c.67 0 1.214.544 1.214 1.217ZM514.866 28.398a1.215 1.215 0 1 1-2.428 0 1.215 1.215 0 1 1 2.428 0ZM490.93 40.387a1.215 1.215 0 1 1-2.428 0 1.215 1.215 0 1 1 2.428 0ZM502.894 40.387a1.215 1.215 0 1 1-2.428 0 1.215 1.215 0 1 1 2.428 0ZM514.866 40.387a1.215 1.215 0 1 1-2.428 0 1.215 1.215 0 1 1 2.428 0ZM177.582 5.716a1.215 1.215 0 1 1-2.428 0 1.215 1.215 0 1 1 2.428 0ZM189.546 5.716a1.215 1.215 0 1 1-2.428 0 1.215 1.215 0 1 1 2.428 0ZM201.518 5.716a1.215 1.215 0 1 1-2.428 0 1.215 1.215 0 1 1 2.428 0ZM177.582 17.705a1.215 1.215 0 1 1-2.428 0 1.215 1.215 0 1 1 2.428 0ZM189.546 17.706a1.215 1.215 0 1 1-2.428 0 1.215 1.215 0 1 1 2.428 0ZM201.518 17.706a1.215 1.215 0 1 1-2.428 0 1.215 1.215 0 1 1 2.428 0ZM598.5 190.4a1.215 1.215 0 1 1-2.43.002 1.215 1.215 0 0 1 2.43-.002ZM598.5 202.389a1.215 1.215 0 1 1-2.43.002 1.215 1.215 0 0 1 2.43-.002ZM598.5 214.369a1.215 1.215 0 1 1-2.43.002 1.215 1.215 0 0 1 2.43-.002ZM598.5 226.358a1.215 1.215 0 1 1-2.43.002 1.215 1.215 0 0 1 2.43-.002ZM598.5 238.338a1.215 1.215 0 1 1-2.43.002 1.215 1.215 0 0 1 2.43-.002ZM598.5 250.327a1.215 1.215 0 1 1-2.43.002 1.215 1.215 0 0 1 2.43-.002ZM598.5 262.307a1.215 1.215 0 1 1-2.43.002 1.215 1.215 0 0 1 2.43-.002ZM586.527 190.4a1.215 1.215 0 1 1-2.43.002 1.215 1.215 0 0 1 2.43-.002ZM586.527 202.389a1.215 1.215 0 1 1-2.43.002 1.215 1.215 0 0 1 2.43-.002ZM586.527 214.369a1.215 1.215 0 1 1-2.43.002 1.215 1.215 0 0 1 2.43-.002ZM586.527 226.358a1.215 1.215 0 1 1-2.43.002 1.215 1.215 0 0 1 2.43-.002ZM586.527 238.338a1.215 1.215 0 1 1-2.43.002 1.215 1.215 0 0 1 2.43-.002ZM586.527 250.327a1.215 1.215 0 1 1-2.43.002 1.215 1.215 0 0 1 2.43-.002ZM586.527 262.307a1.215 1.215 0 1 1-2.43.002 1.215 1.215 0 0 1 2.43-.002ZM574.564 190.4a1.215 1.215 0 1 1-2.43.002 1.215 1.215 0 0 1 2.43-.002ZM574.564 202.389a1.215 1.215 0 1 1-2.43.002 1.215 1.215 0 0 1 2.43-.002ZM574.564 214.369a1.215 1.215 0 1 1-2.43.002 1.215 1.215 0 0 1 2.43-.002ZM574.564 226.358a1.215 1.215 0 1 1-2.43.002 1.215 1.215 0 0 1 2.43-.002ZM574.564 238.338a1.215 1.215 0 1 1-2.43.002 1.215 1.215 0 0 1 2.43-.002ZM574.564 250.327a1.215 1.215 0 1 1-2.43.002 1.215 1.215 0 0 1 2.43-.002ZM574.564 262.307a1.215 1.215 0 1 1-2.43.002 1.215 1.215 0 0 1 2.43-.002ZM562.591 190.4a1.215 1.215 0 1 1-2.43.002 1.215 1.215 0 0 1 2.43-.002ZM562.591 202.389a1.215 1.215 0 1 1-2.43.002 1.215 1.215 0 0 1 2.43-.002ZM562.591 214.369a1.215 1.215 0 1 1-2.43.002 1.215 1.215 0 0 1 2.43-.002ZM562.591 226.358a1.215 1.215 0 1 1-2.43.002 1.215 1.215 0 0 1 2.43-.002ZM562.591 238.338a1.215 1.215 0 1 1-2.43.002 1.215 1.215 0 0 1 2.43-.002ZM562.591 250.327a1.215 1.215 0 1 1-2.43.002 1.215 1.215 0 0 1 2.43-.002ZM562.591 262.307a1.215 1.215 0 1 1-2.43.002 1.215 1.215 0 0 1 2.43-.002Z" fill="#9871F5" stroke="#9871F5"/><path d="M459.05 261.842H148.287c-5.611 0-10.169-4.594-10.169-10.268V60.031c0-5.674 4.558-10.269 10.169-10.269h310.772c5.61 0 10.169 4.595 10.169 10.269v191.542c-.009 5.675-4.568 10.269-10.178 10.269Z" fill="#04D361" stroke="#04D361"/><path d="M458.6 253.268H148.733c-4.806 0-8.708-3.908-8.708-8.72V60.073c0-4.812 3.902-8.72 8.708-8.72H458.6c4.806 0 8.709 3.908 8.709 8.72v184.475c0 4.821-3.903 8.72-8.709 8.72Z" fill="#fff"/><path d="M356.692 68.61v130.155a7.096 7.096 0 0 1-7.095 7.104H153.894a7.044 7.044 0 0 1-4.614-1.708 7.104 7.104 0 0 1-2.48-5.396V68.611c0-3.927 3.183-7.104 7.094-7.104h195.703c1.76 0 3.383.639 4.614 1.707a7.074 7.074 0 0 1 2.481 5.397ZM453.5 117.142h-81.009a7.096 7.096 0 0 1-7.095-7.104V68.611a7.096 7.096 0 0 1 7.095-7.104H453.5a7.095 7.095 0 0 1 7.094 7.104v41.427c0 3.927-3.182 7.104-7.094 7.104ZM453.5 182.636h-81.009a7.096 7.096 0 0 1-7.095-7.104v-41.428a7.096 7.096 0 0 1 7.095-7.104H453.5a7.095 7.095 0 0 1 7.094 7.104v41.428c0 3.926-3.182 7.104-7.094 7.104ZM453.5 244.691h-81.009a7.096 7.096 0 0 1-7.095-7.104v-37.483a7.096 7.096 0 0 1 7.095-7.104H453.5a7.095 7.095 0 0 1 7.094 7.104v37.483c0 3.926-3.182 7.104-7.094 7.104ZM253.825 219.839H149.381a2.57 2.57 0 0 1-2.572-2.574 2.57 2.57 0 0 1 2.572-2.575h104.444a2.575 2.575 0 0 1 0 5.149ZM259.853 244H149.485c-1.504 0-2.718-1.116-2.718-2.499v-10.002c0-1.383 1.214-2.499 2.718-2.499h110.368c1.504 0 2.718 1.116 2.718 2.499v10.002c0 1.383-1.214 2.499-2.718 2.499ZM331.15 219.839h22.97a2.57 2.57 0 0 0 2.572-2.574 2.57 2.57 0 0 0-2.572-2.575h-22.97a2.575 2.575 0 0 0 0 5.149ZM292.187 219.839h22.969a2.57 2.57 0 0 0 2.572-2.574 2.57 2.57 0 0 0-2.572-2.575h-22.969a2.57 2.57 0 0 0-2.572 2.575 2.57 2.57 0 0 0 2.572 2.574ZM308.564 244.11h45.556a2.57 2.57 0 0 0 2.572-2.575v-10.309a2.57 2.57 0 0 0-2.572-2.575h-45.556a2.57 2.57 0 0 0-2.572 2.575v10.309a2.57 2.57 0 0 0 2.572 2.575Z" fill="#E6E6F0"/><g opacity=".24" fill="#E6E6F0" stroke="#6842C2" stroke-width="2" stroke-miterlimit="10"><path d="M412.702 104.14c7.932 0 14.362-6.439 14.362-14.382 0-7.942-6.43-14.381-14.362-14.381s-14.362 6.439-14.362 14.381c0 7.943 6.43 14.382 14.362 14.382Z"/><path d="m418.587 88.34-8.198-4.739a1.348 1.348 0 0 0-2.024 1.169v9.478c0 1.041 1.122 1.69 2.024 1.169l8.198-4.74a1.347 1.347 0 0 0 0-2.337Z"/></g><g opacity=".24" fill="#E6E6F0" stroke="#6842C2" stroke-width="2" stroke-miterlimit="10"><path d="M412.702 168.763c7.932 0 14.362-6.439 14.362-14.382 0-7.942-6.43-14.381-14.362-14.381s-14.362 6.439-14.362 14.381c0 7.943 6.43 14.382 14.362 14.382Z"/><path d="m418.587 152.963-8.198-4.739a1.348 1.348 0 0 0-2.024 1.169v9.478a1.348 1.348 0 0 0 2.024 1.169l8.198-4.739a1.348 1.348 0 0 0 0-2.338Z"/></g><g opacity=".24" fill="#E6E6F0" stroke="#6842C2" stroke-width="2" stroke-miterlimit="10"><path d="M412.702 232.763c7.932 0 14.362-6.439 14.362-14.382 0-7.942-6.43-14.381-14.362-14.381s-14.362 6.439-14.362 14.381c0 7.943 6.43 14.382 14.362 14.382Z"/><path d="m418.587 216.963-8.198-4.739a1.348 1.348 0 0 0-2.024 1.169v9.478a1.348 1.348 0 0 0 2.024 1.169l8.198-4.739a1.348 1.348 0 0 0 0-2.338Z"/></g><path d="M354.211 63.214 149.28 204.161a7.104 7.104 0 0 1-2.48-5.396V68.611c0-3.927 3.183-7.104 7.094-7.104h195.703c1.76 0 3.383.639 4.614 1.707Z" fill="#F2F2FA"/><mask id="a" mask-type="alpha" maskUnits="userSpaceOnUse" x="147" y="32" width="210" height="175"><path d="M356.947 40.819v156.768c0 4.729-3.167 8.557-7.081 8.557H154.512c-1.757 0-3.368-.77-4.606-2.057-1.511-1.573-2.476-3.893-2.476-6.5V40.819c0-4.73 3.177-8.557 7.082-8.557h195.354c1.757 0 3.377.77 4.606 2.057 1.52 1.573 2.475 3.893 2.475 6.5Z" fill="#A3D1DE"/></mask><g mask="url(#a)"><path d="M340.442 142.967s11.699-9.249 12.009-11.897c.584-4.986 2.371-8.894 13.076-12.199 0 0 .83 1.588-.656 3.314-1.623 1.872-2.909 2.529-2.909 2.529s2.836 1.087 7.058-2.218c4.222-3.297 6-6.164 7.778-5.461 0 0 2.097-1.899 3.091-1.598 0 0 .73.219.593 1.005 1.65-.256 1.313 4.51-1.623 8.382-4.222 5.57-9.493 10.364-13.806 11.943-3.237 1.188-16.614 14.82-16.614 14.82l-7.997-8.62Z" fill="#FFCAD0"/><path d="M304.314 190.157c-5.106 1.726-33.437-41.903-33.437-41.903-10.952-12.619-1.122-54.183 8.79-39.61 0 0 25.778 46.696 28.559 50.458 3.456 4.675 14.955 24.672-3.912 31.055Z" fill="#04D361"/><path d="M272.39 233.465h-74.699s-5.736-2.529-.748-13.559c1.869-4.118 1.058-14.729.748-29.293-.629-28.799-9.164-76.6 1.368-82.079 6.31-3.296 19.714-7.633 29.443-10.601.584-.164 1.149-.338 1.706-.502 5.68-1.699 9.738-2.822 9.738-2.822s4.705.685 14.262 3.516c.519.155 1.057.32 1.614.484 2.489.758 5.261 1.643 8.343 2.693 16.705 5.689 14.827 3.662 17.043 24.554 1.769 16.682-8.818 107.609-8.818 107.609Z" fill="#04D361"/><path d="M255.822 98.6c-.219 3.542-1.806 6.674-4.222 8.966a13.583 13.583 0 0 1-9.411 3.771c-7.486 0-13.541-5.999-13.696-13.404.584-.164 1.149-.338 1.706-.502a547.47 547.47 0 0 1 9.738-2.822s4.705.685 14.262 3.516c.519.146 1.066.31 1.623.475Z" fill="#F2F2FA"/><path d="m254.18 68.695-1.176 22.755-.337 6.492a10.267 10.267 0 0 1-3.228 6.985 10.31 10.31 0 0 1-7.131 2.849c-5.827 0-10.523-4.812-10.368-10.637l.292-11.588.492-19.248 21.456 2.392Z" fill="#FBD5D9"/><path d="m254.18 73.243-1.176 21.43c-10.067.402-17.407-3.689-20.772-9.15l.492-14.654 21.456 2.374Z" fill="#FFA4AD"/><path d="M226.04 46.416s-9.647-1.206-8.544 10.902c.858 9.387 13.596 21.915 13.596 21.915s8.043-28.288-5.052-32.817Z" fill="#8F4A3F"/><path d="M265.442 55.136c-.657 1.497-1.669 2.803-2.499 4.21-.82 1.405-1.477 3.012-1.294 4.638-.165-2.64-1.906-4.858-3.411-7.022-1.504-2.173-2.872-4.803-2.152-7.341.684-2.438 5.088-6.283 7.769-4.703 2.982 1.753 2.754 7.56 1.587 10.218Z" fill="#0E1235"/><path d="M262.168 55.62s.748 7.414-.291 15.623c-1.204 9.487-.776 20.627-14.736 21.376-14.9.794-19.833-15.907-19.833-15.907s-7.915-1.479-8.453-6.83c-.538-5.36 4.988-5.66 6.793-4.154 0 0 2.043-19.97 20.472-19.97 16.258-.018 16.048 9.862 16.048 9.862Z" fill="#FBD5D9"/><path d="M244.66 70.86a1.477 1.477 0 1 1-2.954 0 1.478 1.478 0 1 1 2.954 0ZM258.01 70.86a1.478 1.478 0 1 1-2.956.001 1.478 1.478 0 0 1 2.956-.002Z" fill="#9A5449"/><path d="M237.813 65.719s2.188-3.607 6.848-2.31M252.694 63.354s3.365-3.078 6.675.292" stroke="#561E15" stroke-width="1.027" stroke-miterlimit="10" stroke-linecap="round" stroke-linejoin="round"/><path d="M249.74 67.015s1.595 4.082 2.954 6.62c1.359 2.539-2.653 3.67-2.653 3.67M244.396 81.871s3.292 3.196 7.523 1.242M225.383 71.598s-.045-4.592-3.473-3.341" stroke="#D66D78" stroke-width=".771" stroke-miterlimit="10" stroke-linecap="round" stroke-linejoin="round"/><path d="M229.907 50.25s8.38 8.547 3.793 11.816c-5.106 3.644-5.9 8.793-5.9 8.793s.11-1.817-2.161-5.14c-2.27-3.333-7.222-15.149 4.268-15.468Z" fill="#8F4A3F"/><path d="M304.314 190.157c6.092 3.972 52.387-45.546 52.387-45.546l-8.216-10.766s-35.198 22.116-40.259 25.257c-7.295 4.52-24.401 17.705-3.912 31.055Z" fill="#04D361"/><path d="M279.694 161.366s2.07-22.635 1.715-29.822c0 0 2.945 19.002 3.018 36.561l-4.733-6.739Z" fill="#03A14A"/><path d="M201.466 153.651s10.842-46.487-.757-45.939c0 0-3.784.457-11.188 11.962-5.18 8.044-10.851 21.988-21.192 44.669-4.887 10.72-10.997 25.229.347 26.005 6.136.421 12.574-2.94 16.367-9.998 6.949-12.93 16.423-26.699 16.423-26.699Z" fill="#04D361"/><path d="m211.168 211.514 59.006-13.925c-.009 0-18.565 13.925-59.006 13.925ZM195.32 162.992s9.52-16.884 14.581-25.12l-11.882 64.584s-1.158-26.379-2.699-39.464Z" fill="#03A14A"/><path d="m233.262 184.989-35.288 16.499 1.814-16.965 33.474.466Z" fill="#03A14A"/><path d="m239.043 182.166 5.827-31.859v-.001a3.523 3.523 0 0 1 3.475-2.894h12.383c2.204 0 3.874 2 3.474 4.176l-5.826 31.858a3.538 3.538 0 0 1-3.475 2.896h-12.383a3.534 3.534 0 0 1-3.475-4.176Z" fill="#04D361" stroke="#04D361"/><path d="M256.433 188.193h-12.384a4.035 4.035 0 0 1-3.966-4.766l5.827-31.858a4.022 4.022 0 0 1 3.966-3.306h12.383a4.036 4.036 0 0 1 3.967 4.767l-5.827 31.858a4.022 4.022 0 0 1-3.966 3.305Z" fill="#fff"/><path d="m247.231 159.552.001-.004 1.422-7.78.001-.004a.265.265 0 0 1 .264-.216h2.216a.27.27 0 0 1 .266.319l-.001.005-1.423 7.779v.004a.264.264 0 0 1-.265.216h-2.215a.268.268 0 0 1-.266-.319Z" fill="#04D361" stroke="#04D361"/><path d="M221.627 170.963s6.037-.201 10.66-1.616c1.988-.612 5.927-1.324 7.231-3.214 1.313-1.908 1.194-6.027 2.507-6.2 1.013-.137 3.037 3.086 2.517 5.259-.511 2.128-.757 3.306-1.532 4.256-.255.319 8.253.922 13.642-.265 3.693-.813 2.598 2.849.091 3.999 0 0 .893 2.237-1.724 2.995 0 0 .028 2.986-2.471 3.123-.282.694-.766 2.173-2.927 2.703-3.146.776-7.897 1.068-12.684.639-2.434-.219-13.669 1.753-13.669 1.753l-1.641-13.432Z" fill="#FFCAD0"/><path d="M168.311 190.522c8.617 1.507 59.982-4.301 59.982-4.301l-1.277-17.997s-41.854 1.954-47.435 1.452c-18.456-1.635-21.994 18.974-11.27 20.846Z" fill="#04D361"/><path d="M231.94 36.681c.885-.886 1.87-1.826 3.11-1.963 1.24-.137 2.653 1.023 2.243 2.21a63.236 63.236 0 0 1 13.149-4.082c1.131-.219 2.352-.402 3.401.1 1.04.503 1.687 1.955.976 2.859 2.188.821 4.614.283 6.939.009 2.325-.274 4.979-.156 6.556 1.57 1.468 1.598 1.496 4.009 1.45 6.182-.073 2.977-.146 5.972-.821 8.875a21.878 21.878 0 0 1-6.611 11.204c.976-3.342-.766-7.049-3.51-9.195-2.736-2.155-6.265-3.004-9.721-3.397a45.323 45.323 0 0 0-12.474.311c-3.109.511-7.55 2.73-10.641 1.324-6.848-3.105 3.31-13.359 5.954-16.007Z" fill="#8F4A3F"/></g><path d="M337.798 75.158h-42.876a5.95 5.95 0 0 1-5.945-5.954V51.198a5.95 5.95 0 0 1 5.945-5.954h42.876a5.95 5.95 0 0 1 5.945 5.954v18.006a5.95 5.95 0 0 1-5.945 5.954Z" fill="#04D361"/><path d="M298.15 73.222v8.2l8.772-8.784-8.772.584Z" fill="#04D361"/><path d="M301.57 63.625a3.422 3.422 0 0 0 3.419-3.424 3.422 3.422 0 0 0-3.419-3.424 3.422 3.422 0 0 0-3.42 3.424 3.422 3.422 0 0 0 3.42 3.424ZM316.36 63.625a3.422 3.422 0 0 0 3.419-3.424 3.422 3.422 0 0 0-3.419-3.424 3.422 3.422 0 0 0-3.42 3.424 3.422 3.422 0 0 0 3.42 3.424ZM331.15 63.625a3.422 3.422 0 0 0 3.42-3.424 3.422 3.422 0 0 0-3.42-3.424 3.422 3.422 0 0 0-3.419 3.424 3.422 3.422 0 0 0 3.419 3.424Z" fill="#E6E6F0"/><path d="m455.737 318.882-1.942 23.659h10.076l5.234-23.659h-13.368Z" fill="#FEC9CF"/><path d="M464.965 337.591s4.377 7.077 1.095 8.337c-3.283 1.26-24.894 1.37-30.228.575-5.335-.803 11.899-8.117 15.839-9.268 3.948-1.15 5.215 4.849 13.294.356Z" fill="#6842C2"/><path d="m508.716 318.882 1.933 23.659h-10.076l-5.225-23.659h13.368Z" fill="#FEC9CF"/><path d="M499.479 337.591s-4.377 7.077-1.094 8.337c3.283 1.26 24.894 1.37 30.228.575 5.334-.803-11.9-8.117-15.839-9.268-3.939-1.15-5.216 4.849-13.295.356Z" fill="#6842C2"/><path d="m453.713 189.522-4.568 141.851h21.273l4.587-94.479 18.228 97.191 23.17-3.862s-20.918-106.021-24.474-140.692h-38.216v-.009Z" fill="#D8D8E3"/><path d="m474.027 243.401-.723-15.3 1.198 8.8-.475 6.5Z" fill="#194248" stroke="#C9C9D4"/><path d="m485.09 189.522 24.62 141.495" stroke="#C9C9D4" stroke-miterlimit="10" stroke-linecap="round" stroke-linejoin="round"/><path d="M479.966 84.962c4.541.01 9.364 2.393 10.896 6.675 1.186 3.296.292 7.186 1.952 10.273 1.221 2.282 3.665 3.752 4.769 6.09 2.279 4.858-2.162 10.629-.748 15.797 1.304 4.784 7.222 7.524 7.714 12.464.319 3.15-1.896 6.172-4.751 7.542-2.845 1.379-6.182 1.37-9.301.849-7.65-1.287-14.854-5.488-22.604-5.086-3.192.164-6.529 1.096-9.484-.137-2.106-.877-3.629-2.73-4.969-4.575-1.541-2.118-3.019-4.529-2.873-7.14.21-3.835 3.684-6.52 5.763-9.743 2.125-3.296 3.018-7.414 2.426-11.295-2.818-18.445 7.541-17.879 8.863-17.906 1.213-.027 5.243-2.502 6.839-2.968 1.805-.52 3.647-.84 5.508-.84Z" fill="#D38D00"/><path d="M431.3 162.348c-4.386-3.498-22.222-15.313-22.396-16.966-.328-3.104-1.413-5.561-8.06-7.679 0 0-.529.986.392 2.073.994 1.178 1.796 1.588 1.796 1.588s-1.769.658-4.377-1.424c-2.608-2.082-3.693-3.881-4.805-3.452 0 0-1.295-1.196-1.915-1.013 0 0-.456.128-.374.621-1.031-.174-.848 2.794.948 5.232 2.59 3.497 7.158 6.163 9.839 7.177 2.006.758 15.164 20.244 23.982 22.353 2.535.584 7.012-6.885 4.97-8.51Z" fill="#FCDDC6"/><path d="M445.096 145.063s-19.714 13.77-21.62 17.194c-1.906 3.424-.483 12.564 8.298 6.693 8.781-5.872 22.641-16.528 22.641-16.528l-9.319-7.359Z" fill="#FCDDC6"/><path d="M455.227 132.526s-5.417 1.37-9.028 5.67c-3.027 3.607-7.905 9.415-7.905 9.415l14.954 11.632c.009-.009 3.657-21.156 1.979-26.717Z" fill="#47248F"/><path d="M491.929 189.522h-38.225s.155-6.565-1.97-16.765c-2.133-10.19-1.067-15.522 1.058-20.846 2.134-5.323-1.669-17.632 2.435-19.385 1.668-.712 4.568-1.863 7.413-2.968.72-.274 1.432-.557 2.116-.821 3.301-1.279 6.082-2.338 6.082-2.338h6.884s4.742 1.571 9.611 3.516c.639.255 1.286.52 1.924.785v.009c2.453 1.032 4.797 2.118 6.392 3.114 5.171 3.195-3.72 55.699-3.72 55.699Z" fill="#6842C2"/><path d="m468.521 109.461.73 14.171.21 4.045a6.446 6.446 0 0 0 2.006 4.356 6.41 6.41 0 0 0 4.441 1.771 6.461 6.461 0 0 0 6.456-6.62l-.183-7.213-.31-11.989-13.35 1.479Z" fill="#FFDFC8"/><path d="m468.521 109.461.73 13.35c6.264.255 10.842-2.301 12.939-5.698l-.31-9.131-13.359 1.479Z" fill="#DA9F74"/><path d="M463.543 98.485s-.465 4.621.182 9.725c.748 5.908 1.404 12.674 9.183 13.313 9.264.758 12.355-9.907 12.355-9.907s4.304-1.005 4.833-3.945c.529-2.949-2.681-3.835-3.802-2.903 0 0-1.277-12.437-12.748-12.437-10.14 0-10.003 6.154-10.003 6.154Z" fill="#FFDFC8"/><path d="M489.257 130.7c0 .009 0 .009 0 0-7.842 9.569-17.088 9.122-17.088 9.122-7.295-1.598-9.529-10.264-9.529-10.264.721-.274 1.432-.557 2.116-.821 3.301-1.279 6.082-2.338 6.082-2.338h6.884s4.742 1.571 9.611 3.516c.639.255 1.286.52 1.924.785Z" fill="#04D361"/><path d="M487.333 129.915c-7.997 8.701-14.927 7.788-14.927 7.788-7.45-2.858-7.651-8.966-7.651-8.966 3.301-1.279 6.083-2.338 6.083-2.338h6.884s4.742 1.571 9.611 3.516Z" fill="#FCDDC6"/><path d="M467.537 89.647s1.067 8.994-4.705 11.961c0 0-2.891-10.893 4.705-11.962Z" fill="#D38D00"/><path d="M465.786 90.505s2.052 7.834 7.14 8.29c5.088.457 4.185 4.585 8.69 5.059 2.681.284 3.875 3.078 3.875 3.078s.392-2.776 2.818-3.762c2.444-.987-5.736-21.723-22.523-12.665Z" fill="#D38D00"/><path d="M474.421 109.36a.88.88 0 0 0 .885.886.88.88 0 0 0 .884-.886.88.88 0 0 0-.884-.885.892.892 0 0 0-.885.885ZM466.416 109.36a.88.88 0 0 0 .884.885.886.886 0 0 0 0-1.771.886.886 0 0 0-.884.886Z" fill="#60423D"/><path d="M478.533 106.274s-1.313-2.164-4.112-1.388M469.606 104.859s-2.024-1.844-4.002.173" stroke="#561E15" stroke-miterlimit="10" stroke-linecap="round" stroke-linejoin="round"/><path d="M471.375 107.059s-.957 2.447-1.769 3.972c-.811 1.525 1.596 2.201 1.596 2.201M476.682 114.967s-1.559 2.273-4.276 1.625M486.266 108.739s.028-2.757 2.079-1.999" stroke="#DA9F74" stroke-width=".75" stroke-miterlimit="10" stroke-linecap="round" stroke-linejoin="round"/><path d="M454.488 180.409h-35.015a1.261 1.261 0 0 1-1.258-1.26c0-.694.565-1.26 1.258-1.26h35.015c.693 0 1.259.566 1.259 1.26a1.262 1.262 0 0 1-1.259 1.26Z" fill="#04D361"/><path d="M415.535 150.622v-.002a1.347 1.347 0 0 1 1.302-1.669h31.541c.62 0 1.156.42 1.302 1.015v.002l6.795 27.43h-34.304l-6.636-26.776Z" fill="#04D361" stroke="#04D361"/><path d="M454.689 177.898h-35.335l-6.729-27.156a1.847 1.847 0 0 1 1.787-2.291h31.541c.848 0 1.587.575 1.787 1.397l6.949 28.05Z" fill="#fff"/><path d="M481.588 180.409H455.09a1.179 1.179 0 0 1-1.176-1.178v-.155a1.18 1.18 0 0 1 1.176-1.178h26.498c.648 0 1.177.53 1.177 1.178v.155a1.163 1.163 0 0 1-1.177 1.178Z" fill="#04D361"/><path d="M434.48 161.632v.001c.592 1.535.039 2.944-.909 3.317-.943.362-2.297-.311-2.89-1.85-.593-1.539-.036-2.953.908-3.317.944-.364 2.299.303 2.891 1.849Z" fill="#04D361" stroke="#04D361"/><path d="m493.862 177.898-2.298-29.822 4.414 12.555-2.116 17.267Z" fill="#47248F"/><path d="M494.163 151.108s5.453 29.347 6.802 34.15c.876 3.105 7.241 5.223 9.238 1.114.437-.904.337-2.411.291-3.945-.31-9.487-6.939-33.629-6.939-33.629l-9.392 2.31Z" fill="#FCDDC6"/><path d="M495.658 133.823s3.256 1.671 5.991 6.391c2.736 4.721 6.511 13.049 6.274 15.067-1.423 3.88-12.657 7.898-12.657 7.898s-7.504-24.7.392-29.356Z" fill="#6842C2"/><path d="M501.959 179.587s-17.316-.383-20.599-2.337c-4.449-2.657-5.48-1.507-8.06-2.146-4.14-1.032-3.684-.192-3.684-.192s.191 2.402 3.392 2.703c1.614.155 4.03.84 3.52 1.233 0 0-12.839 1.342-15.42 1.57-2.58.229-1.322 2.219.648 2.676 0 0 1.176 1.488 3.082 1.032 0 0-.42.84 4.522.84 4.943 0 9.903-2.63 12.411-1.489 2.507 1.142 16.049 6.392 24.638 5.178 4.104-.585 4.131-2.557 4.131-4.639 0-3.607-2.663-4.063-8.581-4.429Z" fill="#FCDDC6"/><path d="m142.705 318.882-5.717 23.658h-10.076l2.426-23.658h13.367Z" fill="#BC8567"/><path d="M125.818 337.591s-4.377 7.077-1.094 8.337c3.283 1.26 24.894 1.37 30.228.575 5.334-.803-11.9-8.117-15.839-9.268-3.939-1.15-5.216 4.849-13.295.356Z" fill="#6842C2"/><path d="m110.973 318.882-3.456 23.658H97.441l.164-23.658h13.368Z" fill="#BC8567"/><path d="M96.347 337.591s-4.377 7.077-1.094 8.337c3.282 1.26 24.893 1.37 30.228.575 5.334-.803-11.9-8.117-15.839-9.268-3.939-1.15-5.216 4.849-13.295.356Z" fill="#6842C2"/><path d="m94.04 204.461.748 126.246h15.994l11.298-92.754 12.875 37.638-9.638 55.125h17.398s15.292-47.637 14.672-56.987c-.62-9.36-18.274-73.113-18.274-73.113l-45.073 3.845Z" fill="#D8D8E3"/><path d="m124.944 244.815-2.365-6.921 1.102-11.201 1.263 18.122Z" fill="#C9C9D4" stroke="#C9C9D4"/><path d="m103.068 202.936-.922 127.78" stroke="#C9C9D4" stroke-miterlimit="10"/><path d="M152.043 146.643s10.331 19.567 10.559 25.576c.228 6.008-6.383 4.666-9.802-.749-3.419-5.424-8.891-20.801-8.891-20.801l8.134-4.026Z" fill="#BC8567"/><path d="M153.976 148.277s-2.963 5.278-10.067 8.501c-1.468.667-2.708-1.096-3.629-3.187-1.067-2.438-1.687-5.314-1.687-5.314s-8.143-25.229-.966-24.325c0 0 6.109.429 10.595 9.286 1.177 2.31 3.01 6.967 4.542 11.387.437 1.26.848 2.492 1.212 3.652Z" fill="#47248F"/><path d="M153.976 148.277s-2.963 5.278-10.067 8.501c-1.468.667-2.708-1.096-3.629-3.187 2.781-1.251 8.043-4.063 12.484-8.966.437 1.26.848 2.492 1.212 3.652Z" fill="#04D361"/><path d="M139.478 201.995c-4.514 5.132-34.231 4.374-45.447 2.465-1.97-.337-3.912-1.095-.803-7.962 1.168-2.566.666-9.167.465-18.244-.392-17.942-5.708-47.71.848-51.125 3.93-2.054 12.274-4.757 18.338-6.601.365-.101.72-.21 1.067-.32 3.538-1.059 6.064-1.762 6.064-1.762s2.927.429 8.881 2.191c.319.092.666.201 1.012.302 1.55.474 3.274 1.022 5.198 1.68 3.729 1.269 6.465 2.045 7.131 3.287 1.778 3.26 1.094 9.04 1.203 17.367.146 10.455.037 54.193-3.957 58.722Z" fill="#6842C2"/><path d="m92.298 157.938 6.41-15.651-4.668 40.259-1.742-24.608Z" fill="#47248F"/><path d="M129.903 120.948c-.137 2.21-1.13 4.154-2.626 5.579a8.467 8.467 0 0 1-5.854 2.347c-4.66 0-8.435-3.735-8.526-8.355.365-.101.72-.21 1.067-.32 3.538-1.059 6.064-1.762 6.064-1.762s2.927.429 8.881 2.191c.31.119.648.219.994.32Z" fill="#04D361"/><path d="M133.789 86.5s-3.376-3.231-8.485-4c-7.474-1.124-17.313 1.31-19.273 12.735-1.55 6.583 6.465 17.404 9.492 16.773 0 0 27.251-17.273 18.266-25.508Z" fill="#43302D"/><path d="m128.882 102.329-.729 14.172-.21 4.045a6.402 6.402 0 0 1-2.006 4.355 6.413 6.413 0 0 1-4.441 1.772 6.461 6.461 0 0 1-6.456-6.62l.182-7.214.31-11.989 13.35 1.479Z" fill="#BC8567"/><path d="m128.882 105.151-.729 13.35c-6.265.255-10.842-2.301-12.94-5.698l.31-9.131 13.359 1.479Z" fill="#765441"/><path d="M133.852 94.175s.465 4.62-.183 9.725c-.747 5.908-.483 12.847-9.182 13.313-9.283.493-12.356-9.907-12.356-9.907s-4.933-.922-5.27-4.255c-.338-3.333 3.109-3.525 4.231-2.593 0 0 1.276-12.437 12.747-12.437 10.149.01 10.013 6.154 10.013 6.154Z" fill="#BC8567"/><path d="M123.237 103.106c0 .511-.41.922-.92.922a.919.919 0 0 1-.921-.922.92.92 0 0 1 .921-.923c.501 0 .92.411.92.923ZM132.11 102.631a.92.92 0 0 1-.921.922.919.919 0 0 1-.921-.922c0-.511.41-.922.921-.922a.92.92 0 0 1 .921.922Z" fill="#60423D"/><path d="M118.687 100.467s1.359-2.246 4.267-1.434M127.952 98.997s2.097-1.918 4.157.182" stroke="#43302D" stroke-miterlimit="10" stroke-linecap="round" stroke-linejoin="round"/><path d="M126.119 101.28s.994 2.538 1.842 4.127c.848 1.579-1.66 2.283-1.66 2.283M122.782 110.529s2.051 1.991 4.686.776M110.945 104.127s-.027-2.857-2.16-2.081" stroke="#765441" stroke-width=".75" stroke-miterlimit="10" stroke-linecap="round" stroke-linejoin="round"/><path d="M113.763 90.834s5.216 5.323 2.362 7.36c-3.173 2.264-3.675 5.478-3.675 5.478s.064-1.132-1.349-3.205c-1.414-2.073-4.496-9.433 2.662-9.633Z" fill="#43302D"/><path d="M85.204 147.693s-10.331 19.567-10.56 25.576c-.227 6.008 6.384 4.666 9.803-.749 3.42-5.424 8.89-20.801 8.89-20.801l-8.133-4.026ZM158.873 165.598l-16.277-12.062c-1.486-1.114-3.656-2.73-4.44-3.278-1.241-.867-8.49-2.127-9.502-1.963-1.003.164-3.784.639-4.596.94-.811.302.21 1.343 1.012 1.836.803.493 4.359 2.337 7.377 2.894 1.678.311 3.119 1.16 4.295 2.009.939.676 17.189 17.267 17.8 17.669l4.331-8.045Z" fill="#BC8567"/><path d="M139.806 151.592s-5.799-5.433-6.666-5.351c-.857.082-.246 1.306 2.034 3.159.775.63 1.605 1.625 2.298 1.954 1.358.639 2.334.238 2.334.238Z" fill="#BC8567"/><path d="M135.133 171.165h.002a1.255 1.255 0 0 0 1.069-.935l5.051-19.449a1.264 1.264 0 0 0-1.371-1.569h-.001l-21.145 2.529h-.003a1.254 1.254 0 0 0-1.068.935l-5.052 19.449a1.265 1.265 0 0 0 1.372 1.57l21.146-2.53Zm0 0-21.146 2.529 21.146-2.529Z" fill="#04D361" stroke="#04D361"/><path d="m136.132 172.31-21.146 2.529a1.764 1.764 0 0 1-1.915-2.191l5.052-19.449a1.751 1.751 0 0 1 1.495-1.306l21.146-2.53a1.765 1.765 0 0 1 1.915 2.192l-5.052 19.449a1.777 1.777 0 0 1-1.495 1.306Z" fill="#fff"/><path d="m119.863 157.108-.001.005a.048.048 0 0 1-.017.023.097.097 0 0 1-.045.023l-1.006.117a.06.06 0 0 1-.055-.022.06.06 0 0 1-.015-.058v-.001l.994-3.816.003-.009a.053.053 0 0 1 .047-.04l1.019-.119a.06.06 0 0 1 .055.023c.016.017.02.037.015.057v.001l-.994 3.816Z" fill="#04D361" stroke="#04D361"/><path d="M78.593 167.48c6.456.255 26.635-.165 29.307-1.078 1.149-.392 3.976-.986 4.696-2.109.73-1.141 1.35-2.876 2.107-3.004.583-.101.446 1.78.273 2.465-.328 1.233-.547 1.872-.985 2.438-.146.192 4.824.904 7.943.11 2.142-.548 1.741 1.169.301 1.89 0 0 .574 1.497-.94 1.99 0 0 .265 1.662-1.194 1.79-.155.411-.611 1.151-1.87 1.507-1.823.511-4.987.502-7.395.602-1.422.055-28.915 4.356-33.775 3.132-2.024-.511-.565-9.816 1.532-9.733Z" fill="#BC8567"/><path d="M97.122 150.322s-.474 1.799-1.176 3.653c-.784 2.045-1.851 4.145-2.9 3.954 0 0-14.262-4.511-13.787-5.972.355-1.087.966-2.502 1.723-4.073 2.362-4.912 6.11-11.322 7.623-13.806 5.161-8.483 7.277-7.405 7.277-7.405 7.231-.347 1.24 23.649 1.24 23.649Z" fill="#6842C2"/><path d="M95.946 153.975c-.784 2.045-1.851 4.145-2.9 3.954 0 0-14.262-4.511-13.787-5.972.355-1.087.966-2.502 1.723-4.073 2.626 1.242 9.711 4.502 14.964 6.091Z" fill="#04D361"/><path d="M100.469 193.96s23.708-3.808 36.474-11.414c0 0-14.28 14.308-36.474 11.414Z" fill="#47248F"/><path d="M396.148 284.439h-61.651a5.492 5.492 0 0 1-5.489-5.496v-29.832a5.492 5.492 0 0 1 5.489-5.496h61.651a5.492 5.492 0 0 1 5.489 5.496v29.822a5.489 5.489 0 0 1-5.489 5.506Z" fill="#6842C2"/><path d="M335.545 273.893c5.745 0 5.745-6.848 11.49-6.848 5.744 0 5.744-9.131 11.489-9.131 5.745 0 5.745 3.497 11.489 3.497 5.745 0 5.745-8.446 11.49-8.446 5.744 0 5.744 13.249 11.489 13.249" stroke="#fff" stroke-width="2" stroke-miterlimit="10" stroke-linecap="round" stroke-linejoin="round"/><path d="M337.223 273.893c0-.922-.748-1.671-1.669-1.671a1.67 1.67 0 0 0 0 3.342c.921 0 1.669-.749 1.669-1.671ZM394.67 266.223c0-.922-.748-1.671-1.669-1.671a1.67 1.67 0 0 0 0 3.341 1.67 1.67 0 0 0 1.669-1.67Z" fill="#fff"/><path d="M39.62 69.047h61.578c4.122 0 7.468-3.351 7.468-7.478v-18.82c0-4.127-3.346-7.478-7.468-7.478H39.62c-4.121 0-7.468 3.351-7.468 7.478v18.82a7.471 7.471 0 0 0 7.468 7.478Z" fill="#6842C2"/><path d="M99.493 67.111v8.2l-8.781-8.784 8.78.584Z" fill="#6842C2"/><path d="M39.228 43.562h17.07M62.38 43.562h39.21M39.228 52.163h31.824M75.921 52.163h9.42M90.392 52.163h11.198M39.228 60.756h7.204M50.845 60.756h25.988" stroke="#fff" stroke-width="2.216" stroke-miterlimit="10" stroke-linecap="round" stroke-linejoin="round"/><path d="M422.892 38.551H407.09a5.32 5.32 0 0 1-5.317-5.323V17.404a5.32 5.32 0 0 1 5.317-5.324h15.802a5.32 5.32 0 0 1 5.316 5.324v15.824a5.32 5.32 0 0 1-5.316 5.323Z" fill="#6842C2"/><path d="m423.986 23.95-.392-1.735a.637.637 0 0 0-.757-.475l-1.022.238a.63.63 0 0 1-.674-.292 7.339 7.339 0 0 0-1.459-1.671.637.637 0 0 1-.174-.767l.511-1.05a.627.627 0 0 0-.292-.84l-1.605-.777a.625.625 0 0 0-.839.293l-.547 1.14c-.118.257-.401.384-.674.348a7.865 7.865 0 0 0-1.04-.073c-.356 0-.702.027-1.039.073-.283.036-.557-.091-.675-.347l-.547-1.141a.628.628 0 0 0-.839-.293l-1.605.777a.63.63 0 0 0-.292.84l.511 1.05a.65.65 0 0 1-.173.767 7.266 7.266 0 0 0-1.459 1.67.631.631 0 0 1-.675.293l-1.022-.238a.64.64 0 0 0-.756.475l-.392 1.735a.641.641 0 0 0 .474.758l1.295.292c-.01.183-.028.356-.028.539 0 .867.155 1.707.438 2.474a.64.64 0 0 1-.192.722l-.501.402a.627.627 0 0 0-.1.885l1.057 1.397c.219.274.611.32.885.1l.346-.282a.644.644 0 0 1 .794.009 7.38 7.38 0 0 0 2.471 1.27c.273.081.474.319.474.61v.366c0 .347.283.63.629.63h1.778a.63.63 0 0 0 .629-.63v-.365c0-.292.201-.53.475-.612a7.236 7.236 0 0 0 2.471-1.27c.237-.182.565-.2.793-.008l.347.283c.273.219.665.173.884-.1l1.113-1.389a.628.628 0 0 0-.101-.885l-.501-.402a.64.64 0 0 1-.192-.721 7.2 7.2 0 0 0 .438-2.475c0-.183-.018-.356-.027-.539l1.294-.292a.654.654 0 0 0 .484-.767Zm-8.991 6.1a4.506 4.506 0 0 1-4.505-4.511 4.506 4.506 0 1 1 9.009 0 4.505 4.505 0 0 1-4.504 4.51Z" fill="#fff"/><path d="M563.142 143.35c1.619-9.981-5.149-19.384-15.116-21.002-9.967-1.618-19.36 5.161-20.979 15.141-1.619 9.98 5.149 19.383 15.116 21.001 9.967 1.619 19.36-5.16 20.979-15.14Z" fill="#6842C2"/><path d="M555.102 142.823c1.305-5.531-2.115-11.072-7.639-12.377-5.523-1.305-11.059 2.121-12.365 7.651-1.305 5.531 2.114 11.073 7.638 12.378 5.524 1.305 11.06-2.121 12.366-7.652Z" fill="#6842C2" stroke="#fff" stroke-width="2" stroke-miterlimit="10" stroke-linecap="round" stroke-linejoin="round"/><path d="M545.081 133.695v6.729l-3.547 3.552" fill="#6842C2"/><path d="M545.081 133.695v6.729l-3.547 3.552M545.081 130.134v.986M545.081 149.738v.977M555.358 140.424h-.985M535.79 140.424h-.986" stroke="#fff" stroke-width="2" stroke-miterlimit="10" stroke-linecap="round" stroke-linejoin="round"/></svg>