<svg width="46" height="16" fill="none" xmlns="http://www.w3.org/2000/svg"><g clip-path="url(#a)" fill="#fff"><path d="M7.712.644H2.205C.74.644 0 1.448 0 3.04v8.524c0 .209.1.337.313.337h1.665c.199 0 .327-.128.327-.337v-.324c0-.79.294-1.22 1.026-1.302h4.38c1.608 0 2.334-.788 2.334-2.51V3.153c0-1.72-.726-2.508-2.333-2.508Zm.03 6.061c0 .934-.187 1.126-1.169 1.126H4.24c-.982 0-1.608.37-1.936 1.094V3.667c0-.723.157-.917.939-.917h3.33c.982 0 1.17.194 1.17 1.126v2.829ZM15.323 5.356c-1.266 0-1.807.724-1.807 1.946v4.294c0 .193-.085.305-.285.305h-1.508c-.199 0-.298-.112-.298-.305V3.748c0-.194.099-.307.298-.307h1.266c.186 0 .285.113.285.307v1.266c.242-1.045.94-1.576 2.178-1.576h.512c.184 0 .284.113.284.306V5.05c0 .21-.1.306-.284.306h-.64ZM25.14 9.601c0 1.593-.625 2.3-2.12 2.3h-3.698c-1.48 0-2.12-.707-2.12-2.3V5.743c0-1.591.64-2.3 2.12-2.3h3.699c1.494 0 2.12.709 2.12 2.3v3.858Zm-2.09-3.248c0-.837-.143-.997-1.025-.997H20.33c-.896 0-1.039.16-1.039.997v2.638c0 .836.143.997 1.04.997h1.693c.882 0 1.024-.161 1.024-.997V6.353ZM27.246 5.356h-.712c-.186 0-.285-.097-.285-.306V3.748c0-.194.1-.307.285-.307h.711V2.397c0-1.593.74-2.397 2.206-2.397h1.75c.2 0 .285.113.285.305v1.303c0 .21-.086.306-.285.306h-.924c-.783 0-.94.193-.94.917v.61h1.864c.2 0 .285.113.285.307V5.05c0 .21-.086.306-.285.306h-1.864v6.24c0 .193-.1.305-.298.305H27.53c-.199 0-.284-.112-.284-.305v-6.24ZM33.051 5.356h-.71c-.185 0-.284-.097-.284-.306V3.748c0-.194.099-.307.283-.307h.713V2.397C33.05.804 33.793 0 35.256 0h1.75c.2 0 .285.113.285.305v1.303c0 .21-.086.306-.285.306h-.925c-.782 0-.939.193-.939.917v.61h1.864c.2 0 .285.113.285.307V5.05c0 .21-.086.306-.285.306h-1.864v6.24c0 .193-.1.305-.299.305h-1.508c-.2 0-.284-.112-.284-.305v-6.24ZM43.65 15.182H40.55c-1.394 0-1.992-.61-1.992-2.123v-.16a.324.324 0 0 1 .014-.128.295.295 0 0 1 .06-.109.252.252 0 0 1 .097-.068.228.228 0 0 1 .113-.013h1.452c.2 0 .298.113.298.321v.08c0 .322.158.451.47.451h1.793c.854 0 1.067-.24 1.067-1.061V9.835c-.327.724-.953 1.094-1.935 1.094h-1.452c-1.48 0-2.135-.708-2.135-2.3V3.748a.326.326 0 0 1 .018-.124.298.298 0 0 1 .062-.103.256.256 0 0 1 .095-.065.23.23 0 0 1 .11-.015h1.523c.184 0 .284.113.284.307v4.274c0 .836.157.998 1.04.998h1.08c.94 0 1.31-.435 1.31-1.32V3.749c0-.194.099-.307.284-.307h1.524a.221.221 0 0 1 .107.016.246.246 0 0 1 .092.065.312.312 0 0 1 .071.225v8.878c0 1.688-.798 2.557-2.349 2.557Z"/></g><defs><clipPath id="a"><path fill="#fff" d="M0 0h46v15.216H0z"/></clipPath></defs></svg>