<svg width="46" height="17" fill="none" xmlns="http://www.w3.org/2000/svg"><g clip-path="url(#a)" fill="#fff"><path d="M7.712 1.246H2.205C.74 1.246 0 2.102 0 3.8v9.078c0 .222.1.359.313.359h1.665c.199 0 .327-.137.327-.36v-.344c0-.84.294-1.299 1.026-1.387h4.38c1.608 0 2.334-.84 2.334-2.672V3.918c0-1.833-.726-2.672-2.333-2.672Zm.03 6.456c0 .994-.187 1.199-1.169 1.199H4.24c-.982 0-1.608.394-1.936 1.165v-5.6c0-.77.157-.976.939-.976h3.33c.982 0 1.17.206 1.17 1.199v3.013ZM15.323 6.265c-1.266 0-1.807.77-1.807 2.073v4.573c0 .206-.085.325-.285.325h-1.508c-.199 0-.298-.12-.298-.325V4.552c0-.206.099-.326.298-.326h1.266c.186 0 .285.12.285.326v1.349c.242-1.113.94-1.679 2.178-1.679h.512c.184 0 .284.12.284.326V5.94c0 .222-.1.325-.284.325h-.64ZM25.14 10.786c0 1.697-.625 2.45-2.12 2.45h-3.698c-1.48 0-2.12-.754-2.12-2.45V6.677c0-1.695.64-2.45 2.12-2.45h3.699c1.494 0 2.12.755 2.12 2.45v4.11Zm-2.09-3.459c0-.891-.143-1.062-1.025-1.062H20.33c-.896 0-1.039.17-1.039 1.062v2.809c0 .89.143 1.062 1.04 1.062h1.693c.882 0 1.024-.172 1.024-1.062V7.327ZM27.246 6.265h-.712c-.185 0-.285-.103-.285-.325V4.552c0-.206.1-.326.285-.326h.711V3.113c.001-1.696.74-2.552 2.206-2.552h1.75c.2 0 .285.12.285.325v1.387c0 .224-.086.326-.285.326h-.924c-.783 0-.94.205-.94.976v.65h1.864c.2 0 .285.121.285.327V5.94c0 .222-.086.325-.285.325h-1.864v6.646c0 .206-.099.325-.298.325H27.53c-.2 0-.285-.12-.285-.325V6.265ZM33.051 6.265h-.71c-.185 0-.284-.103-.284-.325V4.552c0-.206.099-.326.283-.326h.713V3.113c-.002-1.696.74-2.552 2.203-2.552h1.75c.2 0 .285.12.285.325v1.387c0 .224-.086.326-.285.326h-.925c-.782 0-.939.205-.939.976v.65h1.864c.2 0 .285.121.285.327V5.94c0 .222-.086.325-.285.325h-1.864v6.646c0 .206-.1.325-.299.325h-1.508c-.2 0-.284-.12-.284-.325V6.265ZM43.65 16.73h-3.102c-1.393 0-1.99-.65-1.99-2.261v-.17a.368.368 0 0 1 .012-.137.322.322 0 0 1 .061-.116.254.254 0 0 1 .097-.072.216.216 0 0 1 .113-.015h1.452c.199 0 .298.12.298.343v.085c0 .343.157.48.47.48h1.793c.853 0 1.067-.256 1.067-1.13v-2.702c-.327.77-.953 1.165-1.935 1.165h-1.452c-1.48 0-2.135-.753-2.135-2.45V4.552a.368.368 0 0 1 .018-.131.32.32 0 0 1 .062-.11.255.255 0 0 1 .095-.07.218.218 0 0 1 .11-.015h1.522c.185 0 .285.12.285.326v4.553c0 .89.157 1.062 1.039 1.062h1.081c.94 0 1.31-.463 1.31-1.405v-4.21c0-.206.099-.326.284-.326h1.523a.209.209 0 0 1 .108.016.247.247 0 0 1 .092.07.31.31 0 0 1 .058.11.355.355 0 0 1 .013.13v9.455c-.001 1.797-.798 2.723-2.349 2.723Z"/></g><defs><clipPath id="a"><path fill="#fff" transform="translate(0 .56)" d="M0 0h46v16.205H0z"/></clipPath></defs></svg>