<svg width="40" height="40" fill="none" xmlns="http://www.w3.org/2000/svg"><path d="M5 6h9c1.591 0 3.117.656 4.243 1.822a6.34 6.34 0 0 1 1.757 4.4V34a4.756 4.756 0 0 0-1.318-3.3 4.42 4.42 0 0 0-3.182-1.367H5V6Z" stroke="#fff" stroke-width="3" stroke-linecap="round" stroke-linejoin="round"/><path d="M35 6h-9a5.893 5.893 0 0 0-4.243 1.822 6.34 6.34 0 0 0-1.757 4.4V34c0-1.238.474-2.425 1.318-3.3a4.42 4.42 0 0 1 3.182-1.367H35V6Z" stroke="#fff" stroke-width="3" stroke-linecap="round" stroke-linejoin="round"/></svg>